<svg width="16" height="16" viewBox="0 0 16 16" fill="none" xmlns="http://www.w3.org/2000/svg">
<path d="M3.33321 6.66662C3.33291 6.51085 3.38716 6.35989 3.48654 6.23995C3.54251 6.17245 3.61124 6.11665 3.68881 6.07574C3.76637 6.03484 3.85124 6.00965 3.93856 6.00159C4.02588 5.99354 4.11393 6.0028 4.19766 6.02883C4.2814 6.05486 4.35918 6.09715 4.42654 6.15329L7.99988 9.13995L11.5799 6.25995C11.6481 6.20458 11.7265 6.16322 11.8108 6.13827C11.895 6.11331 11.9833 6.10525 12.0707 6.11454C12.158 6.12384 12.2427 6.1503 12.3198 6.19242C12.3969 6.23453 12.4649 6.29147 12.5199 6.35995C12.5806 6.42893 12.6263 6.50971 12.6543 6.59722C12.6823 6.68472 12.6919 6.77707 12.6825 6.86847C12.6732 6.95986 12.645 7.04833 12.5998 7.12832C12.5546 7.20831 12.4933 7.27809 12.4199 7.33329L8.41988 10.5533C8.30059 10.6513 8.15096 10.7049 7.99654 10.7049C7.84213 10.7049 7.6925 10.6513 7.57321 10.5533L3.57321 7.21995C3.49253 7.15307 3.42876 7.06812 3.38706 6.97198C3.34536 6.87584 3.32691 6.77122 3.33321 6.66662Z" fill="url(#paint0_linear)" stroke="url(#paint1_linear)"/>
<defs>
<linearGradient id="paint0_linear" x1="12.686" y1="8.35186" x2="3.332" y2="8.35186" gradientUnits="userSpaceOnUse">
<stop stop-color="#CAA960"/>
<stop offset="1" stop-color="#F3D48E"/>
</linearGradient>
<linearGradient id="paint1_linear" x1="12.686" y1="8.35186" x2="3.332" y2="8.35186" gradientUnits="userSpaceOnUse">
<stop stop-color="#CAA960"/>
<stop offset="1" stop-color="#F3D48E"/>
</linearGradient>
</defs>
</svg>
