<svg width="20" height="20" viewBox="0 0 20 20" fill="none" xmlns="http://www.w3.org/2000/svg">
<path d="M9.99978 0C5.83978 0 2.45557 3.38421 2.45557 7.54368C2.45557 13.5326 9.1903 19.5489 9.47715 19.8026C9.62715 19.9342 9.81346 20 9.99978 20C10.1935 20 10.3871 19.9289 10.5382 19.7874C10.824 19.52 17.544 13.1726 17.544 7.54421C17.544 3.38474 14.1587 0 9.99978 0ZM9.99978 11.1411C8.01293 11.1411 6.40294 9.53 6.40294 7.54474C6.40294 5.55947 8.01293 3.94842 9.99978 3.94842C11.9856 3.94842 13.5956 5.55895 13.5956 7.54474C13.5956 9.53053 11.9856 11.1411 9.99978 11.1411Z" fill="url(#paint0_linear)"/>
<defs>
<linearGradient id="paint0_linear" x1="9.99978" y1="0" x2="9.99978" y2="20" gradientUnits="userSpaceOnUse">
<stop stop-color="#CAA960"/>
<stop offset="1" stop-color="#F3D48E"/>
</linearGradient>
</defs>
</svg>
