<svg width="120" height="120" viewBox="0 0 120 120" fill="none" xmlns="http://www.w3.org/2000/svg">
<g clip-path="url(#clip0)">
<mask id="path-1-outside-1" maskUnits="userSpaceOnUse" x="-1" y="6.1886" width="122" height="113" fill="black">
<rect fill="white" x="-1" y="6.1886" width="122" height="113"/>
<path d="M118.242 91.1534C119.213 91.1534 120 90.3182 120 89.2874V85.6786C120 82.0305 117.376 79.0626 114.151 79.0626H111.306V75.2391C111.306 72.5638 109.255 70.3873 106.735 70.3873H92.5862C90.066 70.3873 88.0157 72.564 88.0157 75.2391V85.1962C75.3761 83.631 59.6427 83.6285 46.9818 85.1962V75.2391C46.9818 72.5638 44.9313 70.3873 42.4113 70.3873H41.2933C50.9296 64.1582 61.7064 55.7113 70.109 47.4848L75.6266 55.5369C77.1112 57.7039 79.9773 58.1774 82.0115 56.6067L93.4539 47.7719C95.4917 46.1985 95.9439 43.1578 94.4614 40.994L92.3427 37.9019L94.6433 36.1258C97.2517 34.1115 97.7291 30.073 95.7076 27.1228L86.1662 13.1979C84.1445 10.2482 80.3783 9.48612 77.77 11.5001L75.4691 13.2768L73.3506 10.185C71.8684 8.02096 69.0041 7.54153 66.9658 9.11492L55.5234 17.9497C53.4855 19.5231 53.0334 22.5636 54.5158 24.7274L60.0332 32.7795C48.9412 39.4081 36.2191 49.2284 26.8493 58.4018L22.7906 52.4792C20.505 49.1436 16.0828 48.4021 12.941 50.8289L5.50995 56.5664C2.36605 58.9944 1.66878 63.6847 3.95558 67.0223L4.61511 67.9849L2.31472 69.7611C-0.345665 71.8149 -0.729806 75.874 1.25043 78.764L10.7918 92.6884C11.8357 94.2123 13.3657 95.1814 14.9974 95.4389V102.897C14.9974 106.545 17.6215 109.514 20.8467 109.514H23.6916V113.337C23.6916 116.012 25.7421 118.189 28.2621 118.189H42.4113C44.9315 118.189 46.9818 116.012 46.9818 113.337V103.381C51.9775 103.998 57.5934 104.386 63.3616 104.509C63.3737 104.509 63.3857 104.509 63.3977 104.509C64.352 104.509 65.1353 103.698 65.1548 102.681C65.1742 101.65 64.4031 100.798 63.4323 100.778C57.6163 100.653 51.9663 100.256 46.9818 99.6231V88.9525C59.417 87.3704 75.3224 87.3376 88.0157 88.9525V99.6231C83.0317 100.256 77.3814 100.653 71.5651 100.778C70.5946 100.798 69.8233 101.65 69.8427 102.68C69.8622 103.698 70.645 104.509 71.5998 104.509C71.6118 104.509 71.624 104.509 71.6359 104.509C77.4044 104.386 83.0202 103.998 88.0157 103.381V113.337C88.0157 116.012 90.0662 118.189 92.5862 118.189H106.735C109.256 118.189 111.306 116.012 111.306 113.337V109.514H114.151C117.376 109.514 120 106.545 120 102.897V97.996C120 96.9652 119.213 96.13 118.242 96.13C117.271 96.13 116.484 96.9652 116.484 97.996V102.897C116.484 104.46 115.416 105.781 114.151 105.781H111.306V82.795H114.151C115.416 82.795 116.484 84.1157 116.484 85.6788V89.2876C116.484 90.3182 117.271 91.1534 118.242 91.1534ZM79.8379 14.5183C80.8604 13.7291 82.457 14.1294 83.3228 15.3935L92.8642 29.3184C93.7304 30.5823 93.598 32.3179 92.5752 33.1076L90.2746 34.8838C88.8503 32.8043 78.985 18.4072 77.5372 16.2944L79.8379 14.5183ZM57.359 22.5325C57.0229 22.0416 57.1293 21.3254 57.5915 20.9683L69.0339 12.1333C69.4982 11.7753 70.172 11.891 70.5072 12.3804C71.2187 13.4188 87.6161 37.3491 88.4652 38.5886L88.4664 38.5901L91.618 43.1894C91.9543 43.6802 91.8479 44.3965 91.3855 44.7535L79.9429 53.5886C79.4783 53.9468 78.8104 53.8388 78.4698 53.3415C77.7763 52.3296 58.1959 23.7539 57.359 22.5325ZM62.1147 35.8178L68.0277 44.447C58.8822 53.4574 46.0539 63.4183 34.8431 70.0678L28.931 61.4398C38.0519 52.453 50.8879 42.4766 62.1147 35.8178ZM14.9974 85.6786V91.6019C14.4745 91.3952 13.9913 91.0125 13.6355 90.493L4.09409 76.5684C3.18823 75.2468 3.39073 73.5455 4.38308 72.7792L6.68346 71.0031C6.96237 71.4104 9.14604 74.5969 15.3009 83.5797C15.0914 84.2866 14.9974 85.016 14.9974 85.6786ZM23.6916 105.781H20.8467C19.582 105.781 18.5133 104.46 18.5133 102.897C18.5133 101.211 18.5133 87.4358 18.5133 85.6783C18.5133 85.0265 18.716 84.3226 19.1175 83.7698C19.5956 83.1103 20.2423 82.7945 20.8467 82.7945H23.6913L23.6916 105.781ZM23.6916 75.2388V79.0623H20.8467C20.704 79.0623 20.5627 79.0701 20.4223 79.0817C20.3974 79.0837 20.3726 79.0857 20.3477 79.0882C19.2593 79.1927 18.2552 79.6353 17.4178 80.3232L6.79901 64.8264C5.65245 63.1535 6.0019 60.8017 7.57807 59.5846L15.0092 53.8471C16.5783 52.6347 18.8051 53.0071 19.9472 54.6743C21.2271 56.542 29.344 68.388 30.7137 70.3868H28.2619C25.7421 70.3868 23.6916 72.5635 23.6916 75.2388ZM43.4662 113.337C43.4662 113.943 42.9832 114.456 42.4115 114.456H28.2623C27.6907 114.456 27.2076 113.943 27.2076 113.337C27.2076 111.58 27.2076 76.384 27.2076 75.2391C27.2076 74.6323 27.6907 74.1195 28.2623 74.1195C31.8396 74.1195 33.8147 74.1195 34.8429 74.1195C35.584 74.1195 35.8333 74.1195 35.8354 74.1195C36.8632 74.1195 38.8371 74.1195 42.4115 74.1195C42.9832 74.1195 43.4662 74.6323 43.4662 75.2391C43.4662 77.5482 43.4662 111.917 43.4662 113.337ZM107.79 113.337C107.79 113.943 107.307 114.456 106.736 114.456H92.5864C92.0148 114.456 91.5318 113.943 91.5318 113.337V75.2391C91.5318 74.6323 92.0148 74.1195 92.5864 74.1195H106.736C107.307 74.1195 107.79 74.6323 107.79 75.2391C107.79 77.5375 107.79 112.104 107.79 113.337Z"/>
</mask>
<path d="M118.242 91.1534C119.213 91.1534 120 90.3182 120 89.2874V85.6786C120 82.0305 117.376 79.0626 114.151 79.0626H111.306V75.2391C111.306 72.5638 109.255 70.3873 106.735 70.3873H92.5862C90.066 70.3873 88.0157 72.564 88.0157 75.2391V85.1962C75.3761 83.631 59.6427 83.6285 46.9818 85.1962V75.2391C46.9818 72.5638 44.9313 70.3873 42.4113 70.3873H41.2933C50.9296 64.1582 61.7064 55.7113 70.109 47.4848L75.6266 55.5369C77.1112 57.7039 79.9773 58.1774 82.0115 56.6067L93.4539 47.7719C95.4917 46.1985 95.9439 43.1578 94.4614 40.994L92.3427 37.9019L94.6433 36.1258C97.2517 34.1115 97.7291 30.073 95.7076 27.1228L86.1662 13.1979C84.1445 10.2482 80.3783 9.48612 77.77 11.5001L75.4691 13.2768L73.3506 10.185C71.8684 8.02096 69.0041 7.54153 66.9658 9.11492L55.5234 17.9497C53.4855 19.5231 53.0334 22.5636 54.5158 24.7274L60.0332 32.7795C48.9412 39.4081 36.2191 49.2284 26.8493 58.4018L22.7906 52.4792C20.505 49.1436 16.0828 48.4021 12.941 50.8289L5.50995 56.5664C2.36605 58.9944 1.66878 63.6847 3.95558 67.0223L4.61511 67.9849L2.31472 69.7611C-0.345665 71.8149 -0.729806 75.874 1.25043 78.764L10.7918 92.6884C11.8357 94.2123 13.3657 95.1814 14.9974 95.4389V102.897C14.9974 106.545 17.6215 109.514 20.8467 109.514H23.6916V113.337C23.6916 116.012 25.7421 118.189 28.2621 118.189H42.4113C44.9315 118.189 46.9818 116.012 46.9818 113.337V103.381C51.9775 103.998 57.5934 104.386 63.3616 104.509C63.3737 104.509 63.3857 104.509 63.3977 104.509C64.352 104.509 65.1353 103.698 65.1548 102.681C65.1742 101.65 64.4031 100.798 63.4323 100.778C57.6163 100.653 51.9663 100.256 46.9818 99.6231V88.9525C59.417 87.3704 75.3224 87.3376 88.0157 88.9525V99.6231C83.0317 100.256 77.3814 100.653 71.5651 100.778C70.5946 100.798 69.8233 101.65 69.8427 102.68C69.8622 103.698 70.645 104.509 71.5998 104.509C71.6118 104.509 71.624 104.509 71.6359 104.509C77.4044 104.386 83.0202 103.998 88.0157 103.381V113.337C88.0157 116.012 90.0662 118.189 92.5862 118.189H106.735C109.256 118.189 111.306 116.012 111.306 113.337V109.514H114.151C117.376 109.514 120 106.545 120 102.897V97.996C120 96.9652 119.213 96.13 118.242 96.13C117.271 96.13 116.484 96.9652 116.484 97.996V102.897C116.484 104.46 115.416 105.781 114.151 105.781H111.306V82.795H114.151C115.416 82.795 116.484 84.1157 116.484 85.6788V89.2876C116.484 90.3182 117.271 91.1534 118.242 91.1534ZM79.8379 14.5183C80.8604 13.7291 82.457 14.1294 83.3228 15.3935L92.8642 29.3184C93.7304 30.5823 93.598 32.3179 92.5752 33.1076L90.2746 34.8838C88.8503 32.8043 78.985 18.4072 77.5372 16.2944L79.8379 14.5183ZM57.359 22.5325C57.0229 22.0416 57.1293 21.3254 57.5915 20.9683L69.0339 12.1333C69.4982 11.7753 70.172 11.891 70.5072 12.3804C71.2187 13.4188 87.6161 37.3491 88.4652 38.5886L88.4664 38.5901L91.618 43.1894C91.9543 43.6802 91.8479 44.3965 91.3855 44.7535L79.9429 53.5886C79.4783 53.9468 78.8104 53.8388 78.4698 53.3415C77.7763 52.3296 58.1959 23.7539 57.359 22.5325ZM62.1147 35.8178L68.0277 44.447C58.8822 53.4574 46.0539 63.4183 34.8431 70.0678L28.931 61.4398C38.0519 52.453 50.8879 42.4766 62.1147 35.8178ZM14.9974 85.6786V91.6019C14.4745 91.3952 13.9913 91.0125 13.6355 90.493L4.09409 76.5684C3.18823 75.2468 3.39073 73.5455 4.38308 72.7792L6.68346 71.0031C6.96237 71.4104 9.14604 74.5969 15.3009 83.5797C15.0914 84.2866 14.9974 85.016 14.9974 85.6786ZM23.6916 105.781H20.8467C19.582 105.781 18.5133 104.46 18.5133 102.897C18.5133 101.211 18.5133 87.4358 18.5133 85.6783C18.5133 85.0265 18.716 84.3226 19.1175 83.7698C19.5956 83.1103 20.2423 82.7945 20.8467 82.7945H23.6913L23.6916 105.781ZM23.6916 75.2388V79.0623H20.8467C20.704 79.0623 20.5627 79.0701 20.4223 79.0817C20.3974 79.0837 20.3726 79.0857 20.3477 79.0882C19.2593 79.1927 18.2552 79.6353 17.4178 80.3232L6.79901 64.8264C5.65245 63.1535 6.0019 60.8017 7.57807 59.5846L15.0092 53.8471C16.5783 52.6347 18.8051 53.0071 19.9472 54.6743C21.2271 56.542 29.344 68.388 30.7137 70.3868H28.2619C25.7421 70.3868 23.6916 72.5635 23.6916 75.2388ZM43.4662 113.337C43.4662 113.943 42.9832 114.456 42.4115 114.456H28.2623C27.6907 114.456 27.2076 113.943 27.2076 113.337C27.2076 111.58 27.2076 76.384 27.2076 75.2391C27.2076 74.6323 27.6907 74.1195 28.2623 74.1195C31.8396 74.1195 33.8147 74.1195 34.8429 74.1195C35.584 74.1195 35.8333 74.1195 35.8354 74.1195C36.8632 74.1195 38.8371 74.1195 42.4115 74.1195C42.9832 74.1195 43.4662 74.6323 43.4662 75.2391C43.4662 77.5482 43.4662 111.917 43.4662 113.337ZM107.79 113.337C107.79 113.943 107.307 114.456 106.736 114.456H92.5864C92.0148 114.456 91.5318 113.943 91.5318 113.337V75.2391C91.5318 74.6323 92.0148 74.1195 92.5864 74.1195H106.736C107.307 74.1195 107.79 74.6323 107.79 75.2391C107.79 77.5375 107.79 112.104 107.79 113.337Z" fill="#CAA960" fill-opacity="0.5"/>
<path d="M118.242 91.1534C119.213 91.1534 120 90.3182 120 89.2874V85.6786C120 82.0305 117.376 79.0626 114.151 79.0626H111.306V75.2391C111.306 72.5638 109.255 70.3873 106.735 70.3873H92.5862C90.066 70.3873 88.0157 72.564 88.0157 75.2391V85.1962C75.3761 83.631 59.6427 83.6285 46.9818 85.1962V75.2391C46.9818 72.5638 44.9313 70.3873 42.4113 70.3873H41.2933C50.9296 64.1582 61.7064 55.7113 70.109 47.4848L75.6266 55.5369C77.1112 57.7039 79.9773 58.1774 82.0115 56.6067L93.4539 47.7719C95.4917 46.1985 95.9439 43.1578 94.4614 40.994L92.3427 37.9019L94.6433 36.1258C97.2517 34.1115 97.7291 30.073 95.7076 27.1228L86.1662 13.1979C84.1445 10.2482 80.3783 9.48612 77.77 11.5001L75.4691 13.2768L73.3506 10.185C71.8684 8.02096 69.0041 7.54153 66.9658 9.11492L55.5234 17.9497C53.4855 19.5231 53.0334 22.5636 54.5158 24.7274L60.0332 32.7795C48.9412 39.4081 36.2191 49.2284 26.8493 58.4018L22.7906 52.4792C20.505 49.1436 16.0828 48.4021 12.941 50.8289L5.50995 56.5664C2.36605 58.9944 1.66878 63.6847 3.95558 67.0223L4.61511 67.9849L2.31472 69.7611C-0.345665 71.8149 -0.729806 75.874 1.25043 78.764L10.7918 92.6884C11.8357 94.2123 13.3657 95.1814 14.9974 95.4389V102.897C14.9974 106.545 17.6215 109.514 20.8467 109.514H23.6916V113.337C23.6916 116.012 25.7421 118.189 28.2621 118.189H42.4113C44.9315 118.189 46.9818 116.012 46.9818 113.337V103.381C51.9775 103.998 57.5934 104.386 63.3616 104.509C63.3737 104.509 63.3857 104.509 63.3977 104.509C64.352 104.509 65.1353 103.698 65.1548 102.681C65.1742 101.65 64.4031 100.798 63.4323 100.778C57.6163 100.653 51.9663 100.256 46.9818 99.6231V88.9525C59.417 87.3704 75.3224 87.3376 88.0157 88.9525V99.6231C83.0317 100.256 77.3814 100.653 71.5651 100.778C70.5946 100.798 69.8233 101.65 69.8427 102.68C69.8622 103.698 70.645 104.509 71.5998 104.509C71.6118 104.509 71.624 104.509 71.6359 104.509C77.4044 104.386 83.0202 103.998 88.0157 103.381V113.337C88.0157 116.012 90.0662 118.189 92.5862 118.189H106.735C109.256 118.189 111.306 116.012 111.306 113.337V109.514H114.151C117.376 109.514 120 106.545 120 102.897V97.996C120 96.9652 119.213 96.13 118.242 96.13C117.271 96.13 116.484 96.9652 116.484 97.996V102.897C116.484 104.46 115.416 105.781 114.151 105.781H111.306V82.795H114.151C115.416 82.795 116.484 84.1157 116.484 85.6788V89.2876C116.484 90.3182 117.271 91.1534 118.242 91.1534ZM79.8379 14.5183C80.8604 13.7291 82.457 14.1294 83.3228 15.3935L92.8642 29.3184C93.7304 30.5823 93.598 32.3179 92.5752 33.1076L90.2746 34.8838C88.8503 32.8043 78.985 18.4072 77.5372 16.2944L79.8379 14.5183ZM57.359 22.5325C57.0229 22.0416 57.1293 21.3254 57.5915 20.9683L69.0339 12.1333C69.4982 11.7753 70.172 11.891 70.5072 12.3804C71.2187 13.4188 87.6161 37.3491 88.4652 38.5886L88.4664 38.5901L91.618 43.1894C91.9543 43.6802 91.8479 44.3965 91.3855 44.7535L79.9429 53.5886C79.4783 53.9468 78.8104 53.8388 78.4698 53.3415C77.7763 52.3296 58.1959 23.7539 57.359 22.5325ZM62.1147 35.8178L68.0277 44.447C58.8822 53.4574 46.0539 63.4183 34.8431 70.0678L28.931 61.4398C38.0519 52.453 50.8879 42.4766 62.1147 35.8178ZM14.9974 85.6786V91.6019C14.4745 91.3952 13.9913 91.0125 13.6355 90.493L4.09409 76.5684C3.18823 75.2468 3.39073 73.5455 4.38308 72.7792L6.68346 71.0031C6.96237 71.4104 9.14604 74.5969 15.3009 83.5797C15.0914 84.2866 14.9974 85.016 14.9974 85.6786ZM23.6916 105.781H20.8467C19.582 105.781 18.5133 104.46 18.5133 102.897C18.5133 101.211 18.5133 87.4358 18.5133 85.6783C18.5133 85.0265 18.716 84.3226 19.1175 83.7698C19.5956 83.1103 20.2423 82.7945 20.8467 82.7945H23.6913L23.6916 105.781ZM23.6916 75.2388V79.0623H20.8467C20.704 79.0623 20.5627 79.0701 20.4223 79.0817C20.3974 79.0837 20.3726 79.0857 20.3477 79.0882C19.2593 79.1927 18.2552 79.6353 17.4178 80.3232L6.79901 64.8264C5.65245 63.1535 6.0019 60.8017 7.57807 59.5846L15.0092 53.8471C16.5783 52.6347 18.8051 53.0071 19.9472 54.6743C21.2271 56.542 29.344 68.388 30.7137 70.3868H28.2619C25.7421 70.3868 23.6916 72.5635 23.6916 75.2388ZM43.4662 113.337C43.4662 113.943 42.9832 114.456 42.4115 114.456H28.2623C27.6907 114.456 27.2076 113.943 27.2076 113.337C27.2076 111.58 27.2076 76.384 27.2076 75.2391C27.2076 74.6323 27.6907 74.1195 28.2623 74.1195C31.8396 74.1195 33.8147 74.1195 34.8429 74.1195C35.584 74.1195 35.8333 74.1195 35.8354 74.1195C36.8632 74.1195 38.8371 74.1195 42.4115 74.1195C42.9832 74.1195 43.4662 74.6323 43.4662 75.2391C43.4662 77.5482 43.4662 111.917 43.4662 113.337ZM107.79 113.337C107.79 113.943 107.307 114.456 106.736 114.456H92.5864C92.0148 114.456 91.5318 113.943 91.5318 113.337V75.2391C91.5318 74.6323 92.0148 74.1195 92.5864 74.1195H106.736C107.307 74.1195 107.79 74.6323 107.79 75.2391C107.79 77.5375 107.79 112.104 107.79 113.337Z" stroke="#CAA960" stroke-opacity="0.5" stroke-width="2" mask="url(#path-1-outside-1)"/>
</g>
<defs>
<clipPath id="clip0">
<rect width="120" height="120" fill="white"/>
</clipPath>
</defs>
</svg>
