<svg width="35" height="35" viewBox="0 0 35 35" fill="none" xmlns="http://www.w3.org/2000/svg">
<g clip-path="url(#clip0)">
<path d="M27.3027 20.8676C25.8602 20.8676 24.4726 21.2999 23.2899 22.1178C22.3662 22.7567 21.6159 23.595 21.0881 24.571C19.9377 24.4585 18.7201 24.4017 17.4578 24.4017C16.2266 24.4017 15.0366 24.456 13.9092 24.5632C12.6836 22.2939 10.3262 20.8676 7.69797 20.8676C3.80164 20.8676 0.631836 24.0374 0.631836 27.9338C0.631836 31.8301 3.80164 34.9998 7.6979 34.9998C9.23242 34.9998 10.6921 34.516 11.9191 33.6006C12.8815 32.8827 13.6323 31.9529 14.1228 30.8797C15.1874 30.9739 16.3055 31.0215 17.4576 31.0215C18.6407 31.0215 19.7868 30.9713 20.876 30.8721C21.368 31.9418 22.1294 32.8896 23.0765 33.5973C24.3045 34.5148 25.7658 34.9999 27.3024 34.9999C31.1987 34.9999 34.3685 31.8301 34.3685 27.9338C34.3685 24.0374 31.199 20.8676 27.3027 20.8676Z" fill="url(#paint0_linear)"/>
<path d="M33.5863 4.9428C33.0182 3.14291 31.7833 1.67196 30.1088 0.800932C28.4344 -0.0701665 26.5211 -0.236894 24.7211 0.331101C23.3454 0.765249 22.1524 1.59526 21.2707 2.73118C20.582 3.61848 20.1188 4.64373 19.9093 5.73317C18.7782 5.97229 17.6 6.28455 16.3964 6.66442C15.2224 7.035 14.1038 7.44488 13.061 7.88654C11.2091 6.09116 8.53158 5.44073 6.02554 6.23164C2.30989 7.40434 0.241071 11.3813 1.41377 15.0968C2.36396 18.1075 5.15492 20.0369 8.15663 20.0367C8.85936 20.0367 9.57405 19.9309 10.2789 19.7085C11.7423 19.2466 12.9887 18.3459 13.8833 17.1037C14.585 16.1294 15.021 15.0167 15.166 13.8456C16.2093 13.615 17.2899 13.324 18.3889 12.9772C19.5171 12.6211 20.5948 12.2284 21.6037 11.8058C22.3949 12.6778 23.4064 13.3525 24.5225 13.7424C25.9697 14.2478 27.5092 14.2705 28.9745 13.808C30.7745 13.2399 32.2454 12.0049 33.1165 10.3305C33.9876 8.65606 34.1544 6.74269 33.5863 4.9428Z" fill="url(#paint1_linear)"/>
</g>
<defs>
<linearGradient id="paint0_linear" x1="17.5002" y1="20.8676" x2="17.5002" y2="34.9999" gradientUnits="userSpaceOnUse">
<stop stop-color="#CAA960"/>
<stop offset="1" stop-color="#F3D48E"/>
</linearGradient>
<linearGradient id="paint1_linear" x1="17.5014" y1="0" x2="17.5014" y2="20.0367" gradientUnits="userSpaceOnUse">
<stop stop-color="#CAA960"/>
<stop offset="1" stop-color="#F3D48E"/>
</linearGradient>
<clipPath id="clip0">
<rect width="35" height="35" fill="white"/>
</clipPath>
</defs>
</svg>
