<svg width="20" height="20" viewBox="0 0 20 20" fill="none" xmlns="http://www.w3.org/2000/svg">
<path d="M10.5785 12.5265C10.3896 12.6445 10.1771 12.6918 9.98819 12.6918C9.79929 12.6918 9.58678 12.6445 9.39787 12.5265L0 6.78857V14.4155C0 16.0448 1.32231 17.3671 2.95159 17.3671H17.0484C18.6777 17.3671 20 16.0448 20 14.4155V6.78857L10.5785 12.5265Z" fill="url(#paint0_linear)"/>
<path d="M17.0485 2.63281H2.95163C1.55848 2.63281 0.377836 3.62455 0.0944824 4.94686L10.0119 10.9917L19.9056 4.94686C19.6223 3.62455 18.4416 2.63281 17.0485 2.63281Z" fill="url(#paint1_linear)"/>
<defs>
<linearGradient id="paint0_linear" x1="10" y1="6.78857" x2="10" y2="17.3671" gradientUnits="userSpaceOnUse">
<stop stop-color="#CAA960"/>
<stop offset="1" stop-color="#F3D48E"/>
</linearGradient>
<linearGradient id="paint1_linear" x1="10" y1="2.63281" x2="10" y2="10.9917" gradientUnits="userSpaceOnUse">
<stop stop-color="#CAA960"/>
<stop offset="1" stop-color="#F3D48E"/>
</linearGradient>
</defs>
</svg>
