<svg width="40" height="40" viewBox="0 0 40 40" fill="none" xmlns="http://www.w3.org/2000/svg">
<path d="M11.9881 20.4922C10.4442 20.6261 9.52869 21.1677 9.46362 21.2073C9.37516 21.2612 9.31176 21.3481 9.28736 21.4488C9.26296 21.5495 9.27955 21.6557 9.3335 21.7442C9.38744 21.8326 9.47432 21.896 9.57501 21.9204C9.6757 21.9448 9.78196 21.9282 9.87041 21.8743C9.8851 21.8653 10.7892 21.331 12.3337 21.2571C12.4718 21.5462 12.6109 21.8191 12.7471 22.074C11.6716 22.2189 10.745 22.5666 10.0243 23.1044C9.94128 23.1663 9.88626 23.2587 9.87136 23.3613C9.85646 23.4638 9.8829 23.5681 9.94487 23.6511C10.0068 23.7341 10.0992 23.7891 10.2018 23.804C10.3043 23.8189 10.4085 23.7925 10.4916 23.7305C11.2748 23.1461 12.2446 22.8956 13.1617 22.8131C13.3253 23.0909 13.4763 23.3323 13.606 23.5305C12.6523 23.7897 11.7794 24.2856 11.0685 24.972C11.0309 25.0075 11.0008 25.05 10.9798 25.0972C10.9588 25.1444 10.9474 25.1952 10.9461 25.2468C10.9449 25.2985 10.954 25.3498 10.9727 25.3979C10.9915 25.446 11.0196 25.4899 11.0554 25.5271C11.0912 25.5643 11.1341 25.594 11.1814 25.6145C11.2288 25.635 11.2798 25.6459 11.3314 25.6466C11.3831 25.6473 11.4343 25.6378 11.4822 25.6185C11.5301 25.5993 11.5738 25.5707 11.6106 25.5345C12.2976 24.877 13.154 24.4236 14.084 24.225C14.3442 24.6258 14.6864 24.9669 15.0881 25.2257C15.2075 25.3021 15.3314 25.3711 15.4591 25.4324C15.5303 26.2789 15.8937 27.0744 16.4869 27.6824C17.285 28.4812 18.4606 28.8855 19.9844 28.8855H20H20.0156C21.5391 28.8855 22.715 28.4815 23.5131 27.6824C24.1064 27.0744 24.4698 26.2789 24.541 25.4324C24.6687 25.3711 24.7926 25.3021 24.9119 25.2257C25.3339 24.9543 25.6902 24.5923 25.9547 24.1659C26.9909 24.3324 27.952 24.8097 28.711 25.5345C28.7478 25.5707 28.7914 25.5993 28.8393 25.6185C28.8872 25.6378 28.9385 25.6473 28.9901 25.6466C29.0417 25.6459 29.0927 25.635 29.1401 25.6145C29.1875 25.594 29.2303 25.5643 29.2661 25.5271C29.302 25.4899 29.3301 25.446 29.3488 25.3979C29.3676 25.3498 29.3766 25.2985 29.3754 25.2468C29.3742 25.1952 29.3627 25.1444 29.3417 25.0972C29.3207 25.05 29.2906 25.0075 29.2531 24.972C28.472 24.2191 27.4982 23.6964 26.4391 23.4615C26.5618 23.2716 26.7013 23.0467 26.8513 22.7913C27.8553 22.843 28.9583 23.0804 29.8299 23.7305C29.913 23.7925 30.0172 23.8189 30.1198 23.804C30.2223 23.7891 30.3147 23.7341 30.3767 23.6511C30.4386 23.5681 30.4651 23.4638 30.4502 23.3613C30.4353 23.2587 30.3802 23.1663 30.2972 23.1044C29.5097 22.5167 28.4769 22.1556 27.2721 22.0387C27.4043 21.7901 27.5392 21.5241 27.673 21.2437C29.375 21.25 30.3871 21.8359 30.4521 21.875C30.5407 21.9288 30.647 21.9452 30.7476 21.9206C30.8483 21.8961 30.935 21.8325 30.9888 21.744C31.0426 21.6554 31.0591 21.5491 31.0345 21.4485C31.0099 21.3478 30.9464 21.2611 30.8578 21.2073C30.7885 21.165 29.7531 20.5533 28.0207 20.4719C28.1848 20.0859 28.3417 19.6805 28.4844 19.2601C29.5895 16.0028 29.3303 13.2914 27.7344 11.418C26.4869 9.95375 25.2174 9.18367 23.961 9.12804C22.9261 9.08242 21.9391 9.51359 21.0289 10.4093C20.5914 10.8402 20.2338 11.1992 20.0055 11.4308C19.7737 11.2012 19.4113 10.8429 18.9707 10.4093C18.0606 9.51359 17.0734 9.08234 16.0387 9.12804C14.7825 9.18328 13.513 9.95375 12.2653 11.418C10.6695 13.2911 10.4103 16.0028 11.5153 19.2601C11.6608 19.688 11.821 20.1003 11.9881 20.4922ZM13.5806 21.9724C13.4595 21.7526 13.3347 21.5166 13.2095 21.2668C13.3813 21.2784 13.5578 21.2953 13.7407 21.3198C13.6637 21.5309 13.61 21.7497 13.5806 21.9725V21.9724ZM22.9525 27.1383C22.3463 27.7398 21.4406 28.0621 20.2555 28.1001V28.0996C20.1684 28.1024 20.0827 28.1038 19.9984 28.1039C19.915 28.1039 19.8305 28.1025 19.7446 28.0996C18.5592 28.0614 17.6538 27.7395 17.0475 27.1379C16.6621 26.7462 16.3991 26.2508 16.2908 25.712C17.0045 25.856 17.7456 25.7653 18.4035 25.4534C18.9822 25.1688 19.5257 24.8174 20.0228 24.4066C20.4981 24.8244 21.0274 25.1765 21.5966 25.4534C22.2545 25.7653 22.9956 25.856 23.7092 25.712C23.601 26.2509 23.3381 26.7466 22.9525 27.1384V27.1383ZM19.2767 21.5894C18.5862 21.373 18.0445 21.1098 17.6517 20.7997C17.7454 20.6486 17.9246 20.4247 18.1837 20.3778C18.5014 20.3204 18.9098 20.5348 19.3701 20.998C19.3835 21.0336 19.402 21.0671 19.4252 21.0973C19.4894 21.1786 19.5832 21.2311 19.6861 21.2432C19.789 21.2553 19.8925 21.226 19.9738 21.1619C20.6875 20.5986 21.2893 20.3698 21.7136 20.4994C21.9211 20.5716 22.0955 20.7165 22.2045 20.9073C21.805 21.1858 21.2758 21.424 20.6171 21.622C20.5211 21.6508 20.4399 21.7153 20.3902 21.8022C20.3404 21.8891 20.326 21.9918 20.3498 22.0891C20.3682 22.1639 20.3602 22.2428 20.3271 22.3123C20.3174 22.3276 20.2885 22.374 20.1669 22.4001C20.1055 22.4134 20.0462 22.4351 19.9908 22.4647C19.7777 22.4202 19.6617 22.3534 19.6248 22.2991C19.615 22.2831 19.6091 22.265 19.6075 22.2464C19.6058 22.2277 19.6085 22.2089 19.6153 22.1915C19.6463 22.0669 19.6285 21.9352 19.5655 21.8233C19.5026 21.7114 19.3992 21.6277 19.2767 21.5895V21.5894ZM26.4196 21.9723C26.3921 21.7653 26.3437 21.5617 26.2751 21.3646C26.447 21.3346 26.6145 21.3113 26.7775 21.293C26.6567 21.5328 26.5364 21.7601 26.4196 21.9721V21.9723ZM12.8602 11.9248C13.9617 10.6323 15.0424 9.95398 16.0731 9.90867C16.8828 9.8725 17.6736 10.229 18.4228 10.9663C19.1998 11.7309 19.7336 12.2615 19.734 12.2618C19.8075 12.3348 19.907 12.3756 20.0105 12.3753C20.1141 12.375 20.2133 12.3335 20.2863 12.2601C20.2874 12.259 20.2881 12.2577 20.2892 12.2566C20.2943 12.2512 20.8115 11.7192 21.5769 10.966C22.3263 10.2286 23.1168 9.87226 23.9267 9.90835C24.9574 9.95367 26.0384 10.6319 27.1395 11.9244C28.5671 13.6002 28.7706 15.9837 27.7442 19.0089C27.5712 19.5189 27.3727 20.0126 27.1654 20.4761C26.742 20.5003 26.3209 20.5545 25.9052 20.638C25.7897 20.4711 25.6593 20.315 25.5156 20.1716L25.5937 19.5852C25.6478 19.1731 25.5637 18.7548 25.3546 18.3957L24.4985 16.9308C24.4728 16.886 24.4386 16.8467 24.3977 16.8152C24.3568 16.7837 24.3101 16.7606 24.2602 16.7473C24.2104 16.734 24.1584 16.7306 24.1072 16.7375C24.0561 16.7444 24.0068 16.7614 23.9622 16.7874C23.9177 16.8135 23.8787 16.8481 23.8476 16.8893C23.8165 16.9304 23.7939 16.9774 23.781 17.0274C23.7682 17.0774 23.7653 17.1294 23.7727 17.1805C23.7801 17.2316 23.7975 17.2807 23.824 17.325L24.6804 18.7902C24.8021 18.9992 24.851 19.2426 24.8196 19.4824L24.8017 19.6166C24.7078 19.5595 24.6105 19.5084 24.5103 19.4634C24.4631 19.4433 24.4124 19.4327 24.3611 19.4321C24.3098 19.4316 24.2589 19.4412 24.2113 19.4603C24.1637 19.4795 24.1204 19.5078 24.0837 19.5437C24.0471 19.5796 24.0178 19.6224 23.9977 19.6696C23.9776 19.7168 23.967 19.7675 23.9664 19.8188C23.9659 19.8701 23.9755 19.921 23.9946 19.9686C24.0138 20.0162 24.0421 20.0595 24.078 20.0962C24.1139 20.1328 24.1567 20.1621 24.2038 20.1822C24.4356 20.2937 24.65 20.4382 24.8404 20.611L24.8455 20.6155C24.9254 20.6871 25.0011 20.7633 25.0721 20.8438C24.6608 20.9642 24.2569 21.1083 23.8623 21.2753C23.8147 21.295 23.7715 21.324 23.7351 21.3605C23.6988 21.3969 23.67 21.4403 23.6505 21.4879C23.6309 21.5356 23.621 21.5866 23.6212 21.6381C23.6215 21.6896 23.6319 21.7406 23.652 21.788C23.672 21.8355 23.7012 21.8785 23.7379 21.9146C23.7746 21.9508 23.8182 21.9793 23.8659 21.9985C23.9137 22.0177 23.9648 22.0273 24.0163 22.0268C24.0678 22.0262 24.1187 22.0154 24.166 21.9951C24.5998 21.811 25.0457 21.6572 25.5006 21.5348C25.5638 21.6922 25.6092 21.8562 25.6362 22.0237C25.0561 22.0615 24.4803 22.1486 23.9149 22.2838C23.8653 22.2968 23.8187 22.3195 23.7779 22.3505C23.737 22.3815 23.7026 22.4202 23.6767 22.4645C23.6508 22.5088 23.6339 22.5578 23.6269 22.6086C23.62 22.6594 23.6231 22.7111 23.6361 22.7607C23.6491 22.8104 23.6717 22.8569 23.7027 22.8978C23.7337 22.9387 23.7725 22.973 23.8168 22.9989C23.8611 23.0248 23.91 23.0418 23.9608 23.0487C24.0117 23.0557 24.0634 23.0526 24.113 23.0396C24.6143 22.9227 25.124 22.8457 25.6374 22.8093C25.6109 22.9827 25.5664 23.1529 25.5046 23.3171C24.9659 23.2673 24.423 23.2891 23.89 23.3818C23.7886 23.4028 23.6996 23.4633 23.6428 23.5499C23.5859 23.6365 23.5658 23.7421 23.5868 23.8435C23.6078 23.945 23.6683 24.0339 23.7549 24.0908C23.8414 24.1477 23.9471 24.1678 24.0485 24.1468C24.3793 24.0915 24.7147 24.069 25.0499 24.0796C24.6732 24.5156 24.1643 24.8167 23.6008 24.937C23.0373 25.0574 22.4499 24.9905 21.9278 24.7466C21.372 24.4733 20.8582 24.1216 20.4024 23.7023V23.1466C20.6441 23.087 20.8539 22.937 20.9883 22.7274C21.0725 22.5912 21.1228 22.4368 21.135 22.2771C21.885 22.0247 22.4834 21.7093 22.93 21.3309C22.9369 21.3256 22.9434 21.32 22.9498 21.3142C23.3136 21.0158 23.592 20.6264 23.7566 20.1855C24.1628 19.0455 23.5547 18.0118 23.3586 17.7221C23.0647 17.2879 22.931 16.3957 22.9042 16.0883C22.9003 16.0368 22.8863 15.9866 22.8628 15.9406C22.8394 15.8946 22.8071 15.8537 22.7678 15.8203C22.7285 15.7869 22.6829 15.7616 22.6338 15.7458C22.5846 15.7301 22.5328 15.7243 22.4814 15.7287C22.4299 15.7331 22.3799 15.7476 22.3341 15.7715C22.2884 15.7954 22.2478 15.8281 22.2147 15.8677C22.1817 15.9074 22.1568 15.9531 22.1416 16.0025C22.1263 16.0518 22.121 16.1036 22.1259 16.155C22.1373 16.2885 22.2509 17.4794 22.7118 18.16C22.8143 18.3115 23.3112 19.1085 23.0208 19.9234C22.9629 20.0821 22.8815 20.2312 22.7793 20.3658C22.5764 20.079 22.2864 19.8653 21.9524 19.7564C21.3357 19.5628 20.6107 19.7541 19.7942 20.3233C19.1786 19.7482 18.5883 19.5084 18.0364 19.6111C17.6662 19.6904 17.338 19.903 17.1142 20.2084C17.0582 20.1153 17.0116 20.0169 16.9753 19.9145C16.6918 19.1029 17.1857 18.3109 17.2878 18.1604C17.7487 17.4798 17.8621 16.2889 17.8737 16.1554C17.8819 16.0525 17.849 15.9507 17.7824 15.8719C17.7157 15.7932 17.6206 15.7441 17.5178 15.7352C17.415 15.7264 17.3129 15.7586 17.2337 15.8247C17.1546 15.8909 17.1048 15.9857 17.0953 16.0884C17.0687 16.3957 16.9349 17.2882 16.641 17.7225C16.4463 18.0102 15.8417 19.037 16.2381 20.1721C16.5562 21.083 17.4268 21.7865 18.8276 22.265C18.831 22.4345 18.8836 22.5994 18.979 22.7396C19.1136 22.9373 19.3301 23.0819 19.6215 23.1745V23.7245C19.1486 24.1272 18.6282 24.4705 18.0721 24.7469C17.5535 24.9893 16.9703 25.057 16.41 24.9398C15.8498 24.8226 15.3426 24.5269 14.9647 24.0969C15.4013 24.0612 15.8407 24.0781 16.2733 24.1473C16.3746 24.1679 16.4799 24.1474 16.5662 24.0904C16.6524 24.0334 16.7126 23.9446 16.7334 23.8434C16.7543 23.7421 16.7342 23.6367 16.6775 23.5503C16.6208 23.4639 16.5322 23.4034 16.431 23.3822C15.7953 23.2732 15.1467 23.2624 14.5077 23.3501C14.4369 23.1697 14.3871 22.9817 14.3592 22.7898C14.9819 22.8154 15.6008 22.8991 16.2078 23.0398C16.3081 23.0662 16.4147 23.0515 16.5043 22.9992C16.5938 22.9469 16.6589 22.8612 16.6852 22.7609C16.7115 22.6606 16.6969 22.554 16.6446 22.4645C16.5923 22.375 16.5066 22.3099 16.4063 22.2836C15.737 22.1245 15.0537 22.0314 14.3663 22.0055C14.3974 21.8189 14.4514 21.6369 14.5272 21.4636C15.0842 21.5932 15.6289 21.771 16.1552 21.9948C16.2506 22.0351 16.3582 22.0359 16.4541 21.9969C16.5501 21.9578 16.6267 21.8823 16.667 21.7869C16.7073 21.6914 16.708 21.5839 16.669 21.4879C16.63 21.3919 16.5545 21.3154 16.459 21.2751C15.982 21.0726 15.4911 20.9043 14.9903 20.7714C15.0384 20.7206 15.0868 20.6736 15.1349 20.6298C15.1506 20.6179 15.1653 20.6048 15.1789 20.5907C15.3645 20.4262 15.5724 20.2887 15.7965 20.1823C15.8918 20.1417 15.9671 20.0649 16.0057 19.9687C16.0444 19.8726 16.0433 19.765 16.0026 19.6697C15.962 19.5744 15.8852 19.4991 15.789 19.4605C15.6929 19.4218 15.5853 19.4229 15.49 19.4636C15.3899 19.5086 15.2926 19.5598 15.1987 19.6168L15.1808 19.4827C15.1493 19.2429 15.1983 18.9995 15.3199 18.7905L16.1763 17.3252C16.2028 17.2809 16.2202 17.2318 16.2276 17.1807C16.235 17.1296 16.2322 17.0776 16.2193 17.0276C16.2065 16.9776 16.1838 16.9307 16.1527 16.8895C16.1216 16.8483 16.0827 16.8137 16.0381 16.7876C15.9936 16.7616 15.9443 16.7446 15.8931 16.7378C15.842 16.7309 15.79 16.7342 15.7401 16.7475C15.6903 16.7608 15.6435 16.7839 15.6026 16.8154C15.5618 16.8469 15.5275 16.8862 15.5019 16.931L14.6455 18.3962C14.4364 18.7554 14.3523 19.1737 14.4064 19.5857L14.4846 20.1722C14.356 20.3004 14.2381 20.4389 14.132 20.5862C13.7014 20.5132 13.2659 20.4725 12.8292 20.4644C12.6238 20.0045 12.4274 19.515 12.2559 19.0095C11.2291 15.9844 11.4326 13.6005 12.8602 11.9248Z" fill="url(#paint0_linear)"/>
<path d="M22.7199 15.6273C22.7421 15.6311 22.7646 15.6331 22.7872 15.6331C22.8599 15.6328 22.9311 15.6121 22.9927 15.5735C23.0543 15.5348 23.1039 15.4797 23.1359 15.4144C23.2909 15.5186 23.4613 15.598 23.6408 15.6498C23.8041 15.6971 23.9731 15.7213 24.1431 15.7216C24.4167 15.7243 24.6861 15.655 24.9244 15.5207C25.1886 15.3665 25.4056 15.143 25.5519 14.8744C25.6982 14.6057 25.7683 14.3022 25.7544 13.9966C25.828 14.0138 25.8716 14.0267 25.8762 14.0278C25.9747 14.0568 26.0808 14.0458 26.1713 13.9972C26.2618 13.9486 26.3295 13.8663 26.3598 13.7681C26.39 13.6699 26.3804 13.5637 26.3329 13.4726C26.2854 13.3815 26.204 13.3127 26.1062 13.2812C26.0437 13.2619 24.5593 12.8148 23.4581 13.4894C22.891 13.8369 22.5356 14.4041 22.4018 15.1753C22.393 15.2259 22.3942 15.2777 22.4054 15.3278C22.4167 15.3779 22.4376 15.4252 22.4672 15.4672C22.4967 15.5092 22.5343 15.5449 22.5776 15.5724C22.621 15.5999 22.6693 15.6185 22.7199 15.6273ZM23.8638 14.1574C24.1953 13.9534 24.597 13.8962 24.9541 13.8992C24.9899 14.0809 24.9687 14.2693 24.8934 14.4385C24.8181 14.6078 24.6923 14.7496 24.5333 14.8445C24.3239 14.9514 24.0807 14.9711 23.8568 14.8992C23.6846 14.8519 23.529 14.7576 23.4073 14.6269C23.5181 14.4349 23.675 14.2735 23.8638 14.1574Z" fill="url(#paint1_linear)"/>
<path d="M14.1235 14.0282C14.1257 14.0275 14.1699 14.0144 14.2455 13.9969C14.2317 14.3025 14.3017 14.6061 14.448 14.8747C14.5943 15.1434 14.8113 15.3669 15.0756 15.5211C15.3139 15.6554 15.5833 15.7247 15.8568 15.722C16.0268 15.7216 16.1959 15.6975 16.3592 15.6502C16.5387 15.5984 16.709 15.5189 16.8641 15.4147C16.896 15.4801 16.9456 15.5352 17.0072 15.5738C17.0688 15.6125 17.14 15.6331 17.2128 15.6335C17.2353 15.6335 17.2578 15.6315 17.28 15.6276C17.3306 15.6189 17.3789 15.6002 17.4222 15.5728C17.4656 15.5453 17.5031 15.5096 17.5326 15.4677C17.5622 15.4258 17.5832 15.3784 17.5944 15.3284C17.6056 15.2783 17.6069 15.2265 17.5981 15.176C17.4643 14.4048 17.1089 13.8375 16.5418 13.49C15.4408 12.8155 13.9566 13.2625 13.8934 13.2819C13.7952 13.3131 13.7134 13.3818 13.6656 13.473C13.6179 13.5643 13.6081 13.6707 13.6384 13.7691C13.6687 13.8675 13.7366 13.95 13.8274 13.9986C13.9182 14.0472 14.0245 14.058 14.1232 14.0286L14.1235 14.0282ZM15.0457 13.8992C15.4028 13.8962 15.8045 13.9533 16.136 14.1574C16.3248 14.2735 16.4817 14.4349 16.5925 14.6268C16.4708 14.7575 16.3152 14.8518 16.143 14.8992C15.9994 14.9487 15.8451 14.9587 15.6964 14.928C15.5476 14.8973 15.4099 14.8271 15.2976 14.7248C15.1853 14.6225 15.1027 14.4918 15.0584 14.3466C15.0141 14.2013 15.0097 14.0467 15.0457 13.8992Z" fill="url(#paint2_linear)"/>
<path d="M17.391 22.7891C17.4814 22.7891 17.5689 22.7578 17.6388 22.7005C17.7087 22.6432 17.7565 22.5635 17.7742 22.4749C17.7919 22.3863 17.7783 22.2943 17.7357 22.2145C17.6932 22.1348 17.6244 22.0723 17.5409 22.0377C17.4575 22.003 17.3646 21.9984 17.2781 22.0245C17.1916 22.0506 17.1169 22.106 17.0666 22.181C17.0163 22.2561 16.9936 22.3463 17.0023 22.4362C17.011 22.5261 17.0507 22.6102 17.1145 22.6742C17.1879 22.7474 17.2873 22.7887 17.391 22.7891Z" fill="url(#paint3_linear)"/>
<path d="M17.3916 23.9359C17.4817 23.9357 17.5688 23.9042 17.6383 23.8469C17.7078 23.7896 17.7552 23.71 17.7726 23.6216C17.7899 23.5332 17.7761 23.4416 17.7335 23.3623C17.6909 23.2829 17.6222 23.2208 17.5389 23.1865C17.4557 23.1521 17.3631 23.1477 17.277 23.1739C17.1908 23.2002 17.1164 23.2555 17.0664 23.3304C17.0165 23.4053 16.994 23.4952 17.0029 23.5848C17.0117 23.6744 17.0514 23.7582 17.115 23.8219C17.1886 23.8949 17.288 23.9359 17.3916 23.9359Z" fill="url(#paint4_linear)"/>
<path d="M18.3735 23.4445C18.4508 23.4445 18.5263 23.4216 18.5906 23.3787C18.6548 23.3358 18.7049 23.2748 18.7344 23.2034C18.764 23.132 18.7717 23.0535 18.7567 22.9777C18.7416 22.9019 18.7044 22.8323 18.6497 22.7777C18.5951 22.7231 18.5255 22.6858 18.4497 22.6708C18.374 22.6557 18.2954 22.6634 18.2241 22.693C18.1527 22.7226 18.0917 22.7726 18.0487 22.8369C18.0058 22.9011 17.9829 22.9766 17.9829 23.0539C17.9829 23.1052 17.9931 23.1559 18.0128 23.2032C18.0325 23.2506 18.0613 23.2935 18.0977 23.3297C18.171 23.4027 18.2701 23.4439 18.3735 23.4445Z" fill="url(#paint5_linear)"/>
<path d="M22.9303 22.0078C22.8399 22.0078 22.7523 22.0391 22.6824 22.0965C22.6125 22.1538 22.5647 22.2336 22.547 22.3223C22.5294 22.411 22.5431 22.503 22.5857 22.5827C22.6284 22.6624 22.6973 22.7249 22.7809 22.7594C22.8644 22.794 22.9573 22.7985 23.0438 22.7722C23.1303 22.7459 23.205 22.6904 23.2552 22.6152C23.3053 22.54 23.3278 22.4497 23.3189 22.3597C23.3099 22.2698 23.27 22.1857 23.206 22.1219C23.1327 22.0491 23.0336 22.0081 22.9303 22.0078Z" fill="url(#paint6_linear)"/>
<path d="M22.9302 23.1547C22.8394 23.1543 22.7513 23.1855 22.681 23.2428C22.6106 23.3002 22.5623 23.3802 22.5444 23.4692C22.5264 23.5582 22.5399 23.6506 22.5825 23.7308C22.6251 23.811 22.6942 23.8739 22.778 23.9088C22.8618 23.9437 22.9551 23.9484 23.042 23.9222C23.1289 23.8959 23.204 23.8404 23.2546 23.7649C23.3051 23.6895 23.3278 23.5989 23.319 23.5085C23.3101 23.4182 23.2702 23.3337 23.206 23.2695C23.1327 23.1965 23.0337 23.1553 22.9302 23.1547Z" fill="url(#paint7_linear)"/>
<path d="M21.9478 22.6633C21.8574 22.6632 21.7698 22.6946 21.7 22.7519C21.6301 22.8093 21.5822 22.8891 21.5646 22.9777C21.547 23.0664 21.5607 23.1584 21.6033 23.2382C21.646 23.3179 21.7149 23.3803 21.7985 23.4149C21.882 23.4494 21.9749 23.4539 22.0614 23.4276C22.1479 23.4013 22.2226 23.3458 22.2727 23.2706C22.3229 23.1954 22.3454 23.1051 22.3365 23.0152C22.3275 22.9252 22.2876 22.8412 22.2236 22.7773C22.1504 22.7043 22.0512 22.6633 21.9478 22.6633Z" fill="url(#paint8_linear)"/>
<path d="M3.25199 20.0201C3.27025 20.1079 3.3182 20.1868 3.38777 20.2435C3.45734 20.3001 3.5443 20.3311 3.63402 20.3312C3.6609 20.3312 3.6877 20.3284 3.71402 20.3229C3.79566 20.3057 3.86962 20.2627 3.925 20.2003C3.98037 20.1379 4.01423 20.0593 4.02159 19.9762H4.02339C4.06347 19.541 4.25081 19.0856 4.58081 18.619C4.35105 20.3418 4.32839 22.9441 5.08167 25.9905V25.9915V25.9925C5.10801 26.0914 5.17207 26.1759 5.26009 26.228C5.3481 26.2802 5.45305 26.2957 5.55238 26.2713C5.65171 26.2468 5.7375 26.1844 5.79132 26.0974C5.84513 26.0104 5.86268 25.9058 5.84019 25.806C5.73027 25.3566 5.76261 24.7557 5.93214 24.0368C5.93261 24.1692 5.93521 24.3044 5.93995 24.4426C6.00605 26.3242 6.53019 29.0915 8.65167 31.5896C8.71415 31.6625 8.80129 31.7098 8.89646 31.7225C8.99163 31.7353 9.08815 31.7125 9.16761 31.6586C9.24706 31.6047 9.30388 31.5234 9.32721 31.4303C9.35054 31.3372 9.33875 31.2387 9.2941 31.1537C9.08683 30.7631 9.06527 30.0682 9.22808 29.1693C9.25409 29.3384 9.28449 29.5124 9.3198 29.6898C9.72441 31.7222 10.601 33.2184 11.8542 34.0167C11.9266 34.063 12.0123 34.0841 12.0979 34.0766C12.1835 34.0692 12.2642 34.0336 12.3275 33.9755C12.3908 33.9174 12.4331 33.8399 12.4478 33.7553C12.4625 33.6706 12.4488 33.5834 12.4089 33.5074L12.4103 33.5067C12.1799 33.0425 12.0158 32.5483 11.9228 32.0385C12.4808 33.3724 13.3749 34.846 14.8019 36.001C14.874 36.0597 14.9647 36.0907 15.0576 36.0884C15.1505 36.0861 15.2396 36.0506 15.3087 35.9884C15.3777 35.9262 15.4223 35.8413 15.4343 35.7491C15.4462 35.6569 15.4248 35.5635 15.3739 35.4857L15.3754 35.4848C15.2009 35.2158 15.0993 34.858 15.0463 34.4714C15.459 35.545 16.1096 36.737 17.1125 37.5285C17.1721 37.5756 17.2443 37.6043 17.32 37.611C17.3957 37.6177 17.4718 37.6022 17.5388 37.5663C17.6058 37.5305 17.6609 37.4758 17.6974 37.4091C17.7338 37.3423 17.75 37.2664 17.7439 37.1906C17.7332 37.0403 17.7309 36.8896 17.737 36.739C18.1573 38.1326 18.8184 39.1693 19.7057 39.8245C19.7912 39.8881 19.895 39.9224 20.0015 39.9224C20.1081 39.9224 20.2118 39.8881 20.2973 39.8245C21.1695 39.1804 21.8442 38.1207 22.2613 36.7455C22.2671 36.8939 22.2647 37.0426 22.2541 37.1908C22.248 37.2666 22.2641 37.3425 22.3006 37.4093C22.337 37.476 22.3921 37.5307 22.4592 37.5666C22.5262 37.6024 22.6023 37.618 22.678 37.6112C22.7538 37.6045 22.8259 37.5758 22.8856 37.5287C23.8884 36.7369 24.539 35.5451 24.9518 34.4714C24.8988 34.8581 24.7971 35.2159 24.6227 35.4849L24.6242 35.4859C24.5735 35.5637 24.5522 35.657 24.5642 35.7491C24.5763 35.8412 24.6208 35.9259 24.6898 35.9881C24.7588 36.0503 24.8477 36.0857 24.9406 36.0881C25.0334 36.0905 25.124 36.0596 25.1961 36.0011C26.6232 34.8461 27.5172 33.3724 28.0753 32.0385C27.9823 32.5483 27.8182 33.0426 27.5878 33.5068L27.5893 33.5075C27.5494 33.5836 27.5358 33.6707 27.5506 33.7553C27.5654 33.8399 27.6076 33.9172 27.6709 33.9753C27.7341 34.0334 27.8148 34.069 27.9004 34.0765C27.9859 34.084 28.0715 34.063 28.1439 34.0169C29.3974 33.2185 30.2738 31.7224 30.6783 29.6899C30.7136 29.5125 30.744 29.3384 30.77 29.1695C30.9328 30.068 30.9113 30.7633 30.704 31.1535C30.6593 31.2385 30.6474 31.337 30.6707 31.4302C30.6941 31.5234 30.7509 31.6047 30.8304 31.6586C30.9099 31.7126 31.0065 31.7353 31.1017 31.7225C31.1969 31.7097 31.2841 31.6623 31.3465 31.5893C33.4679 29.0913 33.9921 26.3237 34.0582 24.4424C34.0631 24.3042 34.0657 24.169 34.0661 24.0366C34.2355 24.7553 34.2678 25.3563 34.1578 25.8058C34.1354 25.9056 34.1529 26.0102 34.2067 26.0972C34.2605 26.1842 34.3463 26.2466 34.4457 26.271C34.545 26.2954 34.6499 26.2799 34.7379 26.2278C34.826 26.1757 34.89 26.0911 34.9164 25.9923V25.9913L34.9168 25.989C35.6698 22.9431 35.6471 20.3413 35.4175 18.6188C35.7474 19.0855 35.9347 19.5406 35.9749 19.976H35.9767C35.984 20.0591 36.0178 20.1376 36.0732 20.2001C36.1286 20.2625 36.2025 20.3055 36.2842 20.3227C36.3105 20.3281 36.3373 20.3309 36.3642 20.331C36.4539 20.3309 36.5409 20.2999 36.6105 20.2433C36.6801 20.1866 36.728 20.1077 36.7463 20.0199C37.4693 16.5473 36.1297 13.3124 35.1307 11.5083L36.3477 12.2695C36.4162 12.3123 36.4963 12.3329 36.5769 12.3283C36.6576 12.3237 36.7348 12.2943 36.798 12.244C36.8613 12.1937 36.9073 12.125 36.9299 12.0475C36.9525 11.9699 36.9504 11.8872 36.9241 11.8109C35.7783 8.48682 34.3361 6.44822 33.297 5.30268C33.1726 3.85596 32.5275 3.30127 31.9507 3.09955C31.4429 2.92221 30.8882 2.96596 30.3443 3.12947C30.2703 3.09893 30.1971 3.06963 30.1255 3.04291L31.7717 2.66705C31.8524 2.64861 31.9252 2.605 31.9795 2.54252C32.0338 2.48004 32.0669 2.40191 32.0739 2.31942C32.0809 2.23692 32.0616 2.15433 32.0186 2.08355C31.9756 2.01278 31.9113 1.95748 31.8349 1.92565C31.709 1.87315 29.4084 0.93549 26.7724 1.22252L27.4307 0.800646C27.5009 0.75571 27.5548 0.689534 27.5847 0.611777C27.6145 0.534021 27.6187 0.448755 27.5967 0.368428C27.5747 0.288101 27.5276 0.216919 27.4622 0.165273C27.3969 0.113627 27.3167 0.0842214 27.2335 0.081349C27.0254 0.0747865 22.1099 -0.0702917 19.9556 2.02346C17.8053 -0.0702917 12.9712 0.0747865 12.7666 0.081974C12.6834 0.0848932 12.6033 0.114332 12.5379 0.165996C12.4726 0.21766 12.4255 0.288843 12.4035 0.36916C12.3815 0.449476 12.3858 0.534722 12.4157 0.612457C12.4455 0.690192 12.4994 0.756348 12.5696 0.801271L13.2279 1.22315C10.5924 0.936193 8.29128 1.87338 8.16542 1.92627C8.089 1.95812 8.02467 2.01343 7.98172 2.08422C7.93877 2.155 7.91942 2.2376 7.92647 2.3201C7.93352 2.4026 7.96661 2.48072 8.02094 2.54319C8.07528 2.60567 8.14806 2.64926 8.22878 2.66768L9.87488 3.04354C9.79769 3.07244 9.71863 3.10432 9.63839 3.13729C9.10613 2.96877 8.55949 2.92197 8.04995 3.09979C7.12488 3.42275 6.78597 4.34869 6.70261 5.30994C5.66503 6.45111 4.22214 8.48658 3.07441 11.811C3.04806 11.8874 3.04603 11.9701 3.06861 12.0476C3.09118 12.1252 3.13725 12.1938 3.20046 12.2441C3.26368 12.2944 3.34093 12.3239 3.42159 12.3285C3.50224 12.333 3.58233 12.3125 3.65081 12.2696L4.8673 11.5085C3.86839 13.3125 2.52886 16.5475 3.25199 20.0201ZM33.2886 6.50533C34.0668 7.49838 34.9772 8.95065 35.7921 10.9994L34.1467 9.97018C33.7652 9.48371 33.3578 9.01806 32.9264 8.57525C33.1036 7.89635 33.2247 7.20405 33.2886 6.50533ZM31.693 3.83752C32.835 4.23596 32.5763 6.57815 32.276 7.94502C32.1197 7.80158 31.9638 7.664 31.8083 7.53229C32.2814 6.57541 32.127 5.35158 31.4142 4.85377C31.0257 4.58299 30.4767 4.55127 29.9076 4.76721C29.4838 4.93354 29.1053 5.19758 28.8028 5.53783C28.6061 5.43971 28.4163 5.35033 28.2348 5.27018C29.1114 4.52729 30.6623 3.47744 31.693 3.83752ZM31.1787 7.02447C30.6501 6.62017 30.0953 6.25136 29.5178 5.92049C29.7107 5.73787 29.937 5.5943 30.1844 5.49768C30.5036 5.37651 30.7961 5.37549 30.9669 5.49463C31.2957 5.72385 31.4118 6.41221 31.1787 7.02447ZM8.3073 3.83752C9.33722 3.4776 10.8318 4.56041 11.6628 5.31635C11.5228 5.37979 11.3784 5.44833 11.2296 5.52197C10.9212 5.17992 10.5349 4.91728 10.1035 4.75635C9.52714 4.54736 8.97417 4.58299 8.58636 4.85346C7.88324 5.34416 7.74964 6.53229 8.23699 7.49408C8.06511 7.63882 7.89256 7.79067 7.71933 7.94963C7.41972 6.58111 7.16292 4.23697 8.3073 3.83752ZM10.5114 5.90408C9.93974 6.23002 9.39012 6.59312 8.86605 6.99104C8.61941 6.38088 8.71511 5.71658 9.03324 5.49463C9.20745 5.37307 9.508 5.3719 9.83722 5.49119C10.0867 5.58365 10.3157 5.7239 10.5114 5.90408ZM4.20824 10.9994C5.02238 8.95252 5.9323 7.5033 6.70933 6.51299C6.77263 7.21074 6.89282 7.90215 7.0687 8.58033C6.63919 9.02159 6.23358 9.48551 5.85363 9.9701L4.20824 10.9994ZM6.42699 10.5043C8.91191 7.31557 11.7113 6.04338 13.159 5.56838C13.2555 5.53457 13.3349 5.46427 13.3801 5.37259C13.4254 5.28091 13.4329 5.17514 13.401 5.07799C13.3691 4.98085 13.3005 4.90007 13.2097 4.85299C13.1189 4.80591 13.0133 4.79629 12.9156 4.82619C12.7731 4.87307 12.6182 4.92697 12.4525 4.98916C11.9143 4.46074 11.3161 3.99707 10.6701 3.6076C10.9925 3.51494 11.3243 3.45878 11.6592 3.44018C11.755 3.43959 11.8473 3.40379 11.9184 3.3396C11.9896 3.27541 12.0347 3.18729 12.0451 3.09203C12.0555 2.99676 12.0305 2.90099 11.9749 2.82293C11.9193 2.74487 11.837 2.68998 11.7435 2.66869L9.84542 2.23518C11.2333 1.91955 13.4475 1.68236 15.4422 2.63877C15.5319 2.68177 15.6346 2.68895 15.7294 2.65884C15.8242 2.62874 15.9039 2.56361 15.9523 2.47675C16.0007 2.38989 16.0142 2.28782 15.99 2.19137C15.9657 2.09492 15.9056 2.01134 15.8219 1.95768L14.1685 0.898458C15.7082 1.00002 18.1522 1.35846 19.4107 2.58385C19.5555 2.72624 19.7504 2.80611 19.9535 2.80629C20.1566 2.80646 20.3516 2.72693 20.4967 2.58479C21.7651 1.35361 24.2687 0.997208 25.8333 0.897286L24.1783 1.95768C24.0945 2.01131 24.0343 2.09491 24.01 2.1914C23.9858 2.2879 23.9992 2.39002 24.0477 2.47693C24.0962 2.56384 24.176 2.62897 24.2708 2.65905C24.3656 2.68913 24.4684 2.68187 24.5581 2.63877C26.5529 1.68229 28.7669 1.91955 30.1548 2.23518L28.2568 2.66854C28.1635 2.6898 28.0812 2.7446 28.0256 2.82255C27.97 2.90049 27.9449 2.99614 27.9552 3.09134C27.9655 3.18653 28.0103 3.27463 28.0813 3.33891C28.1523 3.40319 28.2444 3.43917 28.3401 3.44002C28.6563 3.45708 28.9697 3.50824 29.275 3.5926C28.6098 3.97258 27.9893 4.42594 27.4251 4.94416C27.3054 4.90072 27.1914 4.86119 27.0849 4.82627C26.9871 4.79637 26.8815 4.80599 26.7908 4.85307C26.7 4.90014 26.6313 4.98093 26.5995 5.07807C26.5676 5.17522 26.5751 5.28098 26.6203 5.37267C26.6656 5.46435 26.745 5.53464 26.8414 5.56846C28.2892 6.04322 31.0886 7.31564 33.5735 10.5045C33.6297 10.5788 36.2977 14.152 36.1641 18.3258C36.0385 18.1338 35.901 17.9499 35.7525 17.775C35.1453 17.0512 34.6126 16.2681 34.1625 15.4375C33.4134 14.062 32.2894 12.9273 30.921 12.1653C30.8305 12.1149 30.7236 12.1026 30.624 12.131C30.5244 12.1595 30.4401 12.2263 30.3898 12.3169C30.3395 12.4075 30.3272 12.5143 30.3556 12.6139C30.384 12.7136 30.4509 12.7978 30.5414 12.8481C31.7806 13.5384 32.7984 14.5662 33.4767 15.8119C33.7325 16.2807 34.0123 16.736 34.3152 17.1759C34.3901 17.4017 34.6763 18.3592 34.7578 20.0274C34.807 21.081 34.7678 22.1367 34.6407 23.1837C34.3829 22.3738 34.0534 21.5884 33.6563 20.837C33.61 20.7522 33.534 20.6876 33.4428 20.6557C33.3517 20.6237 33.252 20.6266 33.1629 20.6638C33.0738 20.701 33.0016 20.7699 32.9604 20.8572C32.9191 20.9445 32.9116 21.044 32.9393 21.1365C32.9435 21.1503 33.3493 22.5305 33.2776 24.4437C33.2022 26.455 32.6539 28.271 31.6482 29.8631C31.5576 28.4811 30.9821 26.9845 30.8903 26.7529C30.8562 26.6669 30.7927 26.5958 30.711 26.5523C30.6294 26.5088 30.5349 26.4957 30.4445 26.5153C30.3541 26.5349 30.2736 26.586 30.2173 26.6594C30.161 26.7328 30.1326 26.8239 30.1371 26.9163C30.1582 27.8013 30.082 28.6859 29.91 29.5542C29.7402 30.4002 29.421 31.4357 28.8237 32.285C29.2087 30.4662 28.9956 28.5496 28.9832 28.4453C28.9721 28.3502 28.9265 28.2625 28.855 28.1988C28.7834 28.1351 28.691 28.0999 28.5953 28.0999H28.5875C28.4904 28.1017 28.3974 28.1397 28.3268 28.2063C28.2562 28.2729 28.2129 28.3635 28.2054 28.4603C28.2025 28.4987 27.9169 31.8453 25.7499 34.3753C25.8709 33.1775 25.6175 31.9574 25.6014 31.8831C25.5823 31.7931 25.5319 31.7128 25.4594 31.6563C25.3868 31.5998 25.2966 31.5707 25.2046 31.5742C25.1127 31.5776 25.025 31.6134 24.9569 31.6753C24.8887 31.7371 24.8446 31.821 24.8323 31.9121C24.8282 31.9426 24.4461 34.635 23.0183 36.3156C22.9492 35.5852 22.838 34.8594 22.6853 34.1418C22.665 34.0485 22.6112 33.9658 22.5341 33.9095C22.457 33.8531 22.3619 33.827 22.2669 33.836C22.1718 33.845 22.0833 33.8885 22.0181 33.9583C21.9529 34.0281 21.9156 34.1194 21.9132 34.2149C21.9123 34.2489 21.8079 37.541 20.0021 39.0632C18.2003 37.5439 18.0874 34.2482 18.0864 34.2144C18.084 34.1189 18.0466 34.0276 17.9814 33.9578C17.9161 33.888 17.8276 33.8445 17.7325 33.8356C17.6374 33.8267 17.5423 33.8529 17.4652 33.9093C17.3881 33.9657 17.3344 34.0485 17.3142 34.1418C17.1616 34.8594 17.0505 35.5852 16.9814 36.3156C15.5535 34.635 15.1714 31.9427 15.1674 31.9123C15.1551 31.8211 15.111 31.7371 15.0429 31.6752C14.9748 31.6133 14.887 31.5775 14.7951 31.574C14.7031 31.5705 14.6129 31.5996 14.5402 31.6561C14.4676 31.7127 14.4173 31.793 14.3982 31.8831C14.3825 31.9572 14.1289 33.1773 14.2497 34.3753C12.0827 31.8453 11.7971 28.4987 11.7942 28.4607C11.7868 28.3639 11.7436 28.2733 11.6731 28.2065C11.6025 28.1398 11.5096 28.1017 11.4125 28.0998C11.3154 28.0978 11.2211 28.1321 11.1479 28.196C11.0747 28.2598 11.0279 28.3486 11.0167 28.4451C11.0046 28.5494 10.7912 30.466 11.1761 32.2848C10.5788 31.4355 10.2596 30.4 10.0902 29.554C9.91826 28.6857 9.8421 27.8012 9.86308 26.9163C9.86769 26.8238 9.83934 26.7328 9.78307 26.6593C9.72681 26.5858 9.64628 26.5347 9.55585 26.5151C9.46542 26.4954 9.37094 26.5085 9.28927 26.5521C9.2076 26.5956 9.14402 26.6667 9.10988 26.7527C9.01792 26.9842 8.44238 28.4809 8.35206 29.8629C7.34636 28.2708 6.798 26.4548 6.72261 24.4435C6.65097 22.5303 7.05683 21.15 7.06081 21.1367C7.08872 21.0441 7.08134 20.9446 7.04012 20.8572C6.99889 20.7698 6.92674 20.7008 6.8376 20.6635C6.74846 20.6262 6.64866 20.6233 6.55748 20.6553C6.46631 20.6873 6.39022 20.7519 6.34394 20.8367C5.94681 21.5883 5.61736 22.3737 5.35949 23.1836C5.23234 22.1366 5.19314 21.0809 5.2423 20.0274C5.32394 18.3589 5.61011 17.4013 5.68503 17.1758C5.98784 16.7359 6.26772 16.2807 6.52355 15.8119C7.20189 14.5662 8.21974 13.5385 9.45886 12.8482C9.5037 12.8233 9.54319 12.7898 9.57508 12.7496C9.60697 12.7094 9.63063 12.6633 9.64471 12.614C9.65879 12.5647 9.66301 12.5131 9.65715 12.4621C9.65128 12.4111 9.63543 12.3618 9.6105 12.317C9.58558 12.2721 9.55206 12.2326 9.51188 12.2008C9.47169 12.1689 9.42561 12.1452 9.37628 12.1311C9.32695 12.117 9.27533 12.1128 9.22436 12.1187C9.1734 12.1246 9.12409 12.1404 9.07925 12.1653C7.71093 12.9274 6.58689 14.0621 5.83769 15.4375C5.38758 16.268 4.85494 17.0511 4.24784 17.7748C4.09947 17.9495 3.9621 18.1333 3.83652 18.325C3.70527 14.1571 6.3712 10.5781 6.42675 10.5043H6.42699Z" fill="url(#paint9_linear)"/>
<defs>
<linearGradient id="paint0_linear" x1="20.161" y1="9.12476" x2="20.161" y2="28.8855" gradientUnits="userSpaceOnUse">
<stop offset="0.619792" stop-color="#CAA960"/>
<stop offset="0.859375" stop-color="#F3D48E"/>
</linearGradient>
<linearGradient id="paint1_linear" x1="24.3866" y1="13.1182" x2="24.3866" y2="15.7217" gradientUnits="userSpaceOnUse">
<stop offset="0.619792" stop-color="#CAA960"/>
<stop offset="0.859375" stop-color="#F3D48E"/>
</linearGradient>
<linearGradient id="paint2_linear" x1="15.6125" y1="13.1188" x2="15.6125" y2="15.7221" gradientUnits="userSpaceOnUse">
<stop offset="0.619792" stop-color="#CAA960"/>
<stop offset="0.859375" stop-color="#F3D48E"/>
</linearGradient>
<linearGradient id="paint3_linear" x1="17.3911" y1="22.0078" x2="17.3911" y2="22.7891" gradientUnits="userSpaceOnUse">
<stop offset="0.619792" stop-color="#CAA960"/>
<stop offset="0.859375" stop-color="#F3D48E"/>
</linearGradient>
<linearGradient id="paint4_linear" x1="17.3904" y1="23.157" x2="17.3904" y2="23.9359" gradientUnits="userSpaceOnUse">
<stop offset="0.619792" stop-color="#CAA960"/>
<stop offset="0.859375" stop-color="#F3D48E"/>
</linearGradient>
<linearGradient id="paint5_linear" x1="18.3735" y1="22.6633" x2="18.3735" y2="23.4445" gradientUnits="userSpaceOnUse">
<stop offset="0.619792" stop-color="#CAA960"/>
<stop offset="0.859375" stop-color="#F3D48E"/>
</linearGradient>
<linearGradient id="paint6_linear" x1="22.9302" y1="22.0078" x2="22.9302" y2="22.7891" gradientUnits="userSpaceOnUse">
<stop offset="0.619792" stop-color="#CAA960"/>
<stop offset="0.859375" stop-color="#F3D48E"/>
</linearGradient>
<linearGradient id="paint7_linear" x1="22.9287" y1="23.1547" x2="22.9287" y2="23.9389" gradientUnits="userSpaceOnUse">
<stop offset="0.619792" stop-color="#CAA960"/>
<stop offset="0.859375" stop-color="#F3D48E"/>
</linearGradient>
<linearGradient id="paint8_linear" x1="21.9478" y1="22.6633" x2="21.9478" y2="23.4445" gradientUnits="userSpaceOnUse">
<stop offset="0.619792" stop-color="#CAA960"/>
<stop offset="0.859375" stop-color="#F3D48E"/>
</linearGradient>
<linearGradient id="paint9_linear" x1="19.9991" y1="0.0769653" x2="19.9991" y2="39.9224" gradientUnits="userSpaceOnUse">
<stop offset="0.619792" stop-color="#CAA960"/>
<stop offset="0.859375" stop-color="#F3D48E"/>
</linearGradient>
</defs>
</svg>
