<svg width="120" height="120" viewBox="0 0 120 120" fill="none" xmlns="http://www.w3.org/2000/svg">
<mask id="path-1-outside-1" maskUnits="userSpaceOnUse" x="28.8022" y="8.58289" width="73" height="63" fill="black">
<rect fill="white" x="28.8022" y="8.58289" width="73" height="63"/>
<path d="M92.1179 24.1685C92.0507 23.1578 91.8638 22.1586 91.5612 21.1919C90.4484 17.6425 87.9064 14.7578 84.4039 13.0689C81.3943 11.6184 78.5098 11.1485 75.612 11.6348C74.6016 10.7077 73.3634 10.0651 72.0237 9.77245C70.8078 9.50195 69.5454 9.52119 68.3383 9.82862C67.1312 10.136 66.0133 10.723 65.075 11.5422C59.5304 8.9219 55.3878 9.80784 52.8425 11.0674C51.3501 11.8114 50.023 12.8487 48.9404 14.1171C45.1449 13.635 42.0776 14.3395 39.8143 16.2159C37.2031 18.381 36.4519 21.4945 36.2358 23.0493C34.5293 23.812 33.1817 25.2022 32.4727 26.9317C31.9518 28.2256 31.8496 29.6502 32.1804 31.0052C30.5834 32.9779 29.8022 35.3456 29.8022 38.2188C29.8022 39.8914 30.1666 41.5439 30.8701 43.0614C31.0335 43.3882 31.3177 43.6386 31.6625 43.7595C32.0074 43.8804 32.3857 43.8623 32.7174 43.7091C33.0492 43.5559 33.3082 43.2796 33.4398 42.9387C33.5713 42.5978 33.565 42.2191 33.4222 41.8828C32.8909 40.7342 32.6156 39.4838 32.6152 38.2183C32.6152 36.4821 32.9365 35.0725 33.6319 33.8411C34.5245 34.8885 35.6844 35.6742 36.9882 36.1146C37.3413 36.2347 37.7276 36.2098 38.0622 36.0451C38.3969 35.8804 38.6524 35.5895 38.7726 35.2365C38.8928 34.8834 38.8678 34.497 38.7031 34.1624C38.5384 33.8278 38.2476 33.5722 37.8945 33.4521C37.3016 33.2629 36.7539 32.9542 36.2851 32.5448C35.8163 32.1355 35.4365 31.6344 35.1692 31.0724C34.9438 30.589 34.82 30.0643 34.8057 29.5311C34.7913 28.9978 34.8867 28.4673 35.0858 27.9724C35.9907 25.702 38.7603 24.5472 41.2597 25.3985C41.6114 25.5137 41.9944 25.4856 42.3255 25.3202C42.6567 25.1549 42.9093 24.8656 43.0286 24.5153C43.1479 24.1649 43.1242 23.7816 42.9627 23.4485C42.8012 23.1155 42.515 22.8595 42.166 22.7362C41.228 22.417 40.2386 22.2756 39.2487 22.3192C39.5665 21.1082 40.2331 19.5128 41.6283 18.3649C43.3983 16.9087 45.9851 16.4545 49.317 17.0144C49.5867 17.0583 49.8633 17.0232 50.1136 16.9136C50.3639 16.804 50.5771 16.6243 50.7277 16.3964C50.9042 16.1292 54.9533 10.1997 63.3448 13.8433C63.1662 14.2231 63.0233 14.6186 62.9178 15.0248C62.8716 15.2036 62.8611 15.3898 62.8869 15.5727C62.9127 15.7555 62.9742 15.9316 63.068 16.0906C63.1618 16.2497 63.2861 16.3888 63.4336 16.4999C63.5812 16.611 63.7491 16.6919 63.9279 16.7381C64.1068 16.7842 64.2929 16.7947 64.4758 16.769C64.6587 16.7432 64.8347 16.6816 64.9938 16.5878C65.1529 16.494 65.292 16.3698 65.403 16.2223C65.5141 16.0747 65.5951 15.9067 65.6412 15.7279C66.244 13.3898 68.8362 11.9512 71.4195 12.5191C72.0415 12.6482 72.6315 12.9004 73.1545 13.2609C73.6776 13.6215 74.1232 14.083 74.4652 14.6184C74.7469 15.0688 74.9341 15.5718 75.0154 16.0968C75.0967 16.6217 75.0704 17.1578 74.9382 17.6723C74.8921 17.8511 74.8817 18.0373 74.9075 18.2202C74.9334 18.403 74.995 18.579 75.0888 18.7381C75.1827 18.8971 75.307 19.0361 75.4546 19.1471C75.6022 19.2582 75.7702 19.339 75.949 19.3851C76.0638 19.4149 76.182 19.43 76.3006 19.4299C76.6122 19.4297 76.915 19.326 77.1613 19.1351C77.4076 18.9442 77.5835 18.6769 77.6614 18.3752C78.0147 17.0143 77.9289 15.5766 77.4165 14.2673C79.2915 14.1925 81.1637 14.6301 83.1821 15.6032C85.977 16.9509 87.9994 19.2346 88.8774 22.0342C89.2895 23.3493 89.4245 24.7355 89.274 26.1053C89.1234 27.4752 88.6906 28.799 88.0027 29.9932C87.9119 30.154 87.8537 30.3311 87.8314 30.5145C87.809 30.6978 87.823 30.8837 87.8725 31.0617C87.9221 31.2396 88.0061 31.406 88.12 31.5515C88.2338 31.6969 88.3752 31.8185 88.536 31.9093C88.6969 32.0001 88.874 32.0583 89.0574 32.0806C89.2407 32.103 89.4266 32.089 89.6046 32.0395C89.7825 31.9899 89.9489 31.9059 90.0943 31.792C90.2398 31.6782 90.3614 31.5368 90.4522 31.376C91.2179 30.028 91.7381 28.5547 91.9885 27.0248C94.2294 26.6678 96.5635 27.828 97.3611 29.8293C97.5603 30.3242 97.6557 30.8547 97.6414 31.388C97.6271 31.9213 97.5033 32.4459 97.2779 32.9294C97.0105 33.4914 96.6307 33.9926 96.1619 34.4019C95.6931 34.8113 95.1452 35.1201 94.5523 35.3092C94.37 35.3625 94.2004 35.4521 94.0536 35.5727C93.9069 35.6933 93.7861 35.8423 93.6986 36.0109C93.611 36.1794 93.5585 36.364 93.5442 36.5534C93.5299 36.7428 93.5542 36.9331 93.6154 37.1129C93.6767 37.2926 93.7738 37.4581 93.9008 37.5994C94.0278 37.7406 94.182 37.8546 94.3543 37.9346C94.5266 38.0146 94.7133 38.0589 94.9031 38.0647C95.093 38.0706 95.282 38.0379 95.4589 37.9687C95.9053 37.816 96.3367 37.6229 96.748 37.3917C97.2636 39.1012 96.8921 41.2448 95.6616 43.2145C95.4654 43.5279 95.2418 43.8232 94.9934 44.0971C94.9474 44.1392 94.9042 44.1843 94.8643 44.2321C92.9227 46.2546 89.7441 46.9462 87.2312 46.3853C87.6442 45.5025 87.7762 44.514 87.6091 43.5537C87.4421 42.5934 86.9841 41.7076 86.2972 41.016C86.1688 40.8833 86.0155 40.7772 85.846 40.7037C85.6766 40.6302 85.4944 40.5908 85.3097 40.5877C85.1251 40.5847 84.9416 40.618 84.7698 40.6859C84.5981 40.7537 84.4413 40.8547 84.3086 40.9831C84.1759 41.1115 84.0697 41.2648 83.9963 41.4342C83.9228 41.6037 83.8834 41.7859 83.8803 41.9706C83.8773 42.1552 83.9106 42.3387 83.9784 42.5104C84.0463 42.6822 84.1473 42.8389 84.2757 42.9717C84.4739 43.1693 84.6285 43.4062 84.7298 43.6671C84.831 43.9281 84.8765 44.2073 84.8635 44.4869C84.8439 44.7743 84.7645 45.0544 84.6304 45.3094C84.4962 45.5643 84.3103 45.7884 84.0844 45.9672C83.5694 46.3748 82.924 46.5815 82.268 46.549C81.612 46.5165 80.9902 46.247 80.5179 45.7905C80.3898 45.6566 80.2365 45.5494 80.0668 45.4749C79.8971 45.4005 79.7143 45.3604 79.529 45.3568C79.3437 45.3532 79.1596 45.3863 78.9871 45.4542C78.8147 45.522 78.6573 45.6233 78.5242 45.7522C78.391 45.881 78.2846 46.0349 78.2111 46.205C78.1376 46.3752 78.0984 46.5581 78.0959 46.7434C78.0933 46.9287 78.1274 47.1127 78.1962 47.2848C78.265 47.4569 78.3671 47.6136 78.4967 47.7461C79.0069 48.2625 79.6155 48.6714 80.2864 48.9484C80.9574 49.2255 81.6771 49.3651 82.403 49.3591C83.3519 49.3613 84.2854 49.1191 85.1136 48.656C86.3386 49.1351 87.6438 49.3763 88.9592 49.3666C90.3644 49.3645 91.7581 49.114 93.076 48.6267C89.9607 54.0684 84.3005 54.861 84.0101 54.8976C83.6399 54.9425 83.3026 55.1326 83.0725 55.4262C82.8425 55.7197 82.7384 56.0926 82.7833 56.4629C82.8282 56.8331 83.0183 57.1704 83.3119 57.4005C83.6054 57.6305 83.9783 57.7346 84.3486 57.6897C85.6432 57.4886 86.9054 57.1163 88.1019 56.5825C89.4195 58.2899 92.2522 62.587 91.6517 67.3303C91.62 67.3702 91.5791 67.4018 91.5323 67.4222C91.4856 67.4426 91.4346 67.4513 91.3838 67.4474H88.3266C88.2732 67.4509 88.2196 67.4425 88.1698 67.4228C88.1199 67.403 88.0751 67.3725 88.0386 67.3333C86.9705 63.0257 81.4815 60.1849 76.7004 58.9628C75.0833 58.5496 74.1312 57.6189 73.7865 56.1171C73.6818 55.6431 73.636 55.158 73.6501 54.6728C74.9409 54.5251 76.2107 54.2306 77.4347 53.7951C77.6089 53.7337 77.7693 53.6387 77.9067 53.5153C78.0442 53.3919 78.156 53.2427 78.2357 53.0762C78.3155 52.9096 78.3617 52.729 78.3716 52.5446C78.3816 52.3602 78.3551 52.1756 78.2937 52.0014C78.2324 51.8273 78.1373 51.6669 78.0139 51.5294C77.8906 51.392 77.7414 51.2802 77.5748 51.2005C77.4082 51.1207 77.2276 51.0745 77.0432 51.0646C76.8588 51.0546 76.6742 51.0811 76.5001 51.1424C70.6772 53.1949 66.6415 50.7616 66.4794 50.6613C66.1736 50.4672 65.8047 50.3985 65.4495 50.4696C65.0944 50.5408 64.7804 50.7462 64.573 51.0431C63.4416 52.6619 60.6945 53.4215 59.7125 53.5806C56.679 54.1071 53.9762 53.5296 52.1019 51.9529C50.7971 50.8551 50.0485 49.3607 50.0485 47.853C50.0592 46.3305 50.6588 44.8713 51.7215 43.781C51.8563 43.649 51.9632 43.4912 52.0358 43.317C52.1084 43.1428 52.1452 42.9557 52.144 42.767C52.1428 42.5783 52.1036 42.3918 52.0288 42.2185C51.954 42.0453 51.8451 41.8889 51.7085 41.7586C51.572 41.6283 51.4106 41.5269 51.2341 41.4603C51.0575 41.3937 50.8693 41.3633 50.6808 41.3709C50.4922 41.3786 50.3071 41.4241 50.1365 41.5048C49.9659 41.5855 49.8133 41.6997 49.6878 41.8406C49.3859 42.1567 49.1072 42.4942 48.8539 42.8505C47.2039 41.9338 44.9832 41.541 44.1519 41.4208C43.7845 41.3706 43.4122 41.4676 43.116 41.6905C42.8197 41.9135 42.6235 42.2444 42.57 42.6113C42.5166 42.9781 42.6101 43.3513 42.8304 43.6495C43.0506 43.9478 43.3798 44.147 43.7462 44.2038C45.2529 44.425 46.8312 44.9158 47.6108 45.366C47.4612 45.8556 47.3562 46.3576 47.2969 46.866C45.0121 47.8065 42.4817 47.9706 40.0946 47.3331C39.8376 47.2664 39.5668 47.2747 39.3144 47.3571C39.0619 47.4394 38.8383 47.5923 38.6701 47.7977C38.5192 47.9791 38.4164 48.1956 38.3712 48.4272C38.326 48.6588 38.3398 48.898 38.4113 49.1229C38.4828 49.3477 38.6097 49.551 38.7804 49.7139C38.9511 49.8768 39.16 49.9942 39.3879 50.0552C42.0579 50.7642 44.8775 50.672 47.4954 49.7899C47.9624 51.4817 48.939 52.9886 50.2925 54.1059C52.2324 55.7378 54.7615 56.5865 57.5764 56.5863C58.447 56.5842 59.3158 56.5072 60.1733 56.3561C60.3404 56.3299 63.8412 55.7549 66.0715 53.5971C67.5832 54.2448 69.1943 54.6301 70.8355 54.7366C70.8282 55.3726 70.8902 56.0075 71.0204 56.6301C71.5709 59.2113 73.3407 61.0078 76.0051 61.6888C80.9462 62.9519 84.6854 65.4925 85.3097 68.0109C85.4888 68.6694 85.8834 69.2488 86.4305 69.6567C86.9776 70.0646 87.6456 70.2773 88.3278 70.2609H91.3857C92.1206 70.2757 92.8359 70.0228 93.3982 69.5493C93.9605 69.0759 94.3316 68.4142 94.4422 67.6874C95.1324 62.2361 92.2625 57.4699 90.6094 55.2342C93.0598 53.6205 95.9253 50.7548 97.2127 45.832C97.5202 45.479 97.7993 45.1024 98.0476 44.7056C99.9694 41.6296 100.301 38.129 99.0031 35.4625C99.3303 35.043 99.6086 34.5875 99.8323 34.1048C100.219 33.2751 100.431 32.375 100.455 31.4601C100.479 30.5452 100.315 29.635 99.9729 28.7861C98.7453 25.7043 95.4568 23.8741 92.1179 24.1685Z"/>
</mask>
<path d="M92.1179 24.1685C92.0507 23.1578 91.8638 22.1586 91.5612 21.1919C90.4484 17.6425 87.9064 14.7578 84.4039 13.0689C81.3943 11.6184 78.5098 11.1485 75.612 11.6348C74.6016 10.7077 73.3634 10.0651 72.0237 9.77245C70.8078 9.50195 69.5454 9.52119 68.3383 9.82862C67.1312 10.136 66.0133 10.723 65.075 11.5422C59.5304 8.9219 55.3878 9.80784 52.8425 11.0674C51.3501 11.8114 50.023 12.8487 48.9404 14.1171C45.1449 13.635 42.0776 14.3395 39.8143 16.2159C37.2031 18.381 36.4519 21.4945 36.2358 23.0493C34.5293 23.812 33.1817 25.2022 32.4727 26.9317C31.9518 28.2256 31.8496 29.6502 32.1804 31.0052C30.5834 32.9779 29.8022 35.3456 29.8022 38.2188C29.8022 39.8914 30.1666 41.5439 30.8701 43.0614C31.0335 43.3882 31.3177 43.6386 31.6625 43.7595C32.0074 43.8804 32.3857 43.8623 32.7174 43.7091C33.0492 43.5559 33.3082 43.2796 33.4398 42.9387C33.5713 42.5978 33.565 42.2191 33.4222 41.8828C32.8909 40.7342 32.6156 39.4838 32.6152 38.2183C32.6152 36.4821 32.9365 35.0725 33.6319 33.8411C34.5245 34.8885 35.6844 35.6742 36.9882 36.1146C37.3413 36.2347 37.7276 36.2098 38.0622 36.0451C38.3969 35.8804 38.6524 35.5895 38.7726 35.2365C38.8928 34.8834 38.8678 34.497 38.7031 34.1624C38.5384 33.8278 38.2476 33.5722 37.8945 33.4521C37.3016 33.2629 36.7539 32.9542 36.2851 32.5448C35.8163 32.1355 35.4365 31.6344 35.1692 31.0724C34.9438 30.589 34.82 30.0643 34.8057 29.5311C34.7913 28.9978 34.8867 28.4673 35.0858 27.9724C35.9907 25.702 38.7603 24.5472 41.2597 25.3985C41.6114 25.5137 41.9944 25.4856 42.3255 25.3202C42.6567 25.1549 42.9093 24.8656 43.0286 24.5153C43.1479 24.1649 43.1242 23.7816 42.9627 23.4485C42.8012 23.1155 42.515 22.8595 42.166 22.7362C41.228 22.417 40.2386 22.2756 39.2487 22.3192C39.5665 21.1082 40.2331 19.5128 41.6283 18.3649C43.3983 16.9087 45.9851 16.4545 49.317 17.0144C49.5867 17.0583 49.8633 17.0232 50.1136 16.9136C50.3639 16.804 50.5771 16.6243 50.7277 16.3964C50.9042 16.1292 54.9533 10.1997 63.3448 13.8433C63.1662 14.2231 63.0233 14.6186 62.9178 15.0248C62.8716 15.2036 62.8611 15.3898 62.8869 15.5727C62.9127 15.7555 62.9742 15.9316 63.068 16.0906C63.1618 16.2497 63.2861 16.3888 63.4336 16.4999C63.5812 16.611 63.7491 16.6919 63.9279 16.7381C64.1068 16.7842 64.2929 16.7947 64.4758 16.769C64.6587 16.7432 64.8347 16.6816 64.9938 16.5878C65.1529 16.494 65.292 16.3698 65.403 16.2223C65.5141 16.0747 65.5951 15.9067 65.6412 15.7279C66.244 13.3898 68.8362 11.9512 71.4195 12.5191C72.0415 12.6482 72.6315 12.9004 73.1545 13.2609C73.6776 13.6215 74.1232 14.083 74.4652 14.6184C74.7469 15.0688 74.9341 15.5718 75.0154 16.0968C75.0967 16.6217 75.0704 17.1578 74.9382 17.6723C74.8921 17.8511 74.8817 18.0373 74.9075 18.2202C74.9334 18.403 74.995 18.579 75.0888 18.7381C75.1827 18.8971 75.307 19.0361 75.4546 19.1471C75.6022 19.2582 75.7702 19.339 75.949 19.3851C76.0638 19.4149 76.182 19.43 76.3006 19.4299C76.6122 19.4297 76.915 19.326 77.1613 19.1351C77.4076 18.9442 77.5835 18.6769 77.6614 18.3752C78.0147 17.0143 77.9289 15.5766 77.4165 14.2673C79.2915 14.1925 81.1637 14.6301 83.1821 15.6032C85.977 16.9509 87.9994 19.2346 88.8774 22.0342C89.2895 23.3493 89.4245 24.7355 89.274 26.1053C89.1234 27.4752 88.6906 28.799 88.0027 29.9932C87.9119 30.154 87.8537 30.3311 87.8314 30.5145C87.809 30.6978 87.823 30.8837 87.8725 31.0617C87.9221 31.2396 88.0061 31.406 88.12 31.5515C88.2338 31.6969 88.3752 31.8185 88.536 31.9093C88.6969 32.0001 88.874 32.0583 89.0574 32.0806C89.2407 32.103 89.4266 32.089 89.6046 32.0395C89.7825 31.9899 89.9489 31.9059 90.0943 31.792C90.2398 31.6782 90.3614 31.5368 90.4522 31.376C91.2179 30.028 91.7381 28.5547 91.9885 27.0248C94.2294 26.6678 96.5635 27.828 97.3611 29.8293C97.5603 30.3242 97.6557 30.8547 97.6414 31.388C97.6271 31.9213 97.5033 32.4459 97.2779 32.9294C97.0105 33.4914 96.6307 33.9926 96.1619 34.4019C95.6931 34.8113 95.1452 35.1201 94.5523 35.3092C94.37 35.3625 94.2004 35.4521 94.0536 35.5727C93.9069 35.6933 93.7861 35.8423 93.6986 36.0109C93.611 36.1794 93.5585 36.364 93.5442 36.5534C93.5299 36.7428 93.5542 36.9331 93.6154 37.1129C93.6767 37.2926 93.7738 37.4581 93.9008 37.5994C94.0278 37.7406 94.182 37.8546 94.3543 37.9346C94.5266 38.0146 94.7133 38.0589 94.9031 38.0647C95.093 38.0706 95.282 38.0379 95.4589 37.9687C95.9053 37.816 96.3367 37.6229 96.748 37.3917C97.2636 39.1012 96.8921 41.2448 95.6616 43.2145C95.4654 43.5279 95.2418 43.8232 94.9934 44.0971C94.9474 44.1392 94.9042 44.1843 94.8643 44.2321C92.9227 46.2546 89.7441 46.9462 87.2312 46.3853C87.6442 45.5025 87.7762 44.514 87.6091 43.5537C87.4421 42.5934 86.9841 41.7076 86.2972 41.016C86.1688 40.8833 86.0155 40.7772 85.846 40.7037C85.6766 40.6302 85.4944 40.5908 85.3097 40.5877C85.1251 40.5847 84.9416 40.618 84.7698 40.6859C84.5981 40.7537 84.4413 40.8547 84.3086 40.9831C84.1759 41.1115 84.0697 41.2648 83.9963 41.4342C83.9228 41.6037 83.8834 41.7859 83.8803 41.9706C83.8773 42.1552 83.9106 42.3387 83.9784 42.5104C84.0463 42.6822 84.1473 42.8389 84.2757 42.9717C84.4739 43.1693 84.6285 43.4062 84.7298 43.6671C84.831 43.9281 84.8765 44.2073 84.8635 44.4869C84.8439 44.7743 84.7645 45.0544 84.6304 45.3094C84.4962 45.5643 84.3103 45.7884 84.0844 45.9672C83.5694 46.3748 82.924 46.5815 82.268 46.549C81.612 46.5165 80.9902 46.247 80.5179 45.7905C80.3898 45.6566 80.2365 45.5494 80.0668 45.4749C79.8971 45.4005 79.7143 45.3604 79.529 45.3568C79.3437 45.3532 79.1596 45.3863 78.9871 45.4542C78.8147 45.522 78.6573 45.6233 78.5242 45.7522C78.391 45.881 78.2846 46.0349 78.2111 46.205C78.1376 46.3752 78.0984 46.5581 78.0959 46.7434C78.0933 46.9287 78.1274 47.1127 78.1962 47.2848C78.265 47.4569 78.3671 47.6136 78.4967 47.7461C79.0069 48.2625 79.6155 48.6714 80.2864 48.9484C80.9574 49.2255 81.6771 49.3651 82.403 49.3591C83.3519 49.3613 84.2854 49.1191 85.1136 48.656C86.3386 49.1351 87.6438 49.3763 88.9592 49.3666C90.3644 49.3645 91.7581 49.114 93.076 48.6267C89.9607 54.0684 84.3005 54.861 84.0101 54.8976C83.6399 54.9425 83.3026 55.1326 83.0725 55.4262C82.8425 55.7197 82.7384 56.0926 82.7833 56.4629C82.8282 56.8331 83.0183 57.1704 83.3119 57.4005C83.6054 57.6305 83.9783 57.7346 84.3486 57.6897C85.6432 57.4886 86.9054 57.1163 88.1019 56.5825C89.4195 58.2899 92.2522 62.587 91.6517 67.3303C91.62 67.3702 91.5791 67.4018 91.5323 67.4222C91.4856 67.4426 91.4346 67.4513 91.3838 67.4474H88.3266C88.2732 67.4509 88.2196 67.4425 88.1698 67.4228C88.1199 67.403 88.0751 67.3725 88.0386 67.3333C86.9705 63.0257 81.4815 60.1849 76.7004 58.9628C75.0833 58.5496 74.1312 57.6189 73.7865 56.1171C73.6818 55.6431 73.636 55.158 73.6501 54.6728C74.9409 54.5251 76.2107 54.2306 77.4347 53.7951C77.6089 53.7337 77.7693 53.6387 77.9067 53.5153C78.0442 53.3919 78.156 53.2427 78.2357 53.0762C78.3155 52.9096 78.3617 52.729 78.3716 52.5446C78.3816 52.3602 78.3551 52.1756 78.2937 52.0014C78.2324 51.8273 78.1373 51.6669 78.0139 51.5294C77.8906 51.392 77.7414 51.2802 77.5748 51.2005C77.4082 51.1207 77.2276 51.0745 77.0432 51.0646C76.8588 51.0546 76.6742 51.0811 76.5001 51.1424C70.6772 53.1949 66.6415 50.7616 66.4794 50.6613C66.1736 50.4672 65.8047 50.3985 65.4495 50.4696C65.0944 50.5408 64.7804 50.7462 64.573 51.0431C63.4416 52.6619 60.6945 53.4215 59.7125 53.5806C56.679 54.1071 53.9762 53.5296 52.1019 51.9529C50.7971 50.8551 50.0485 49.3607 50.0485 47.853C50.0592 46.3305 50.6588 44.8713 51.7215 43.781C51.8563 43.649 51.9632 43.4912 52.0358 43.317C52.1084 43.1428 52.1452 42.9557 52.144 42.767C52.1428 42.5783 52.1036 42.3918 52.0288 42.2185C51.954 42.0453 51.8451 41.8889 51.7085 41.7586C51.572 41.6283 51.4106 41.5269 51.2341 41.4603C51.0575 41.3937 50.8693 41.3633 50.6808 41.3709C50.4922 41.3786 50.3071 41.4241 50.1365 41.5048C49.9659 41.5855 49.8133 41.6997 49.6878 41.8406C49.3859 42.1567 49.1072 42.4942 48.8539 42.8505C47.2039 41.9338 44.9832 41.541 44.1519 41.4208C43.7845 41.3706 43.4122 41.4676 43.116 41.6905C42.8197 41.9135 42.6235 42.2444 42.57 42.6113C42.5166 42.9781 42.6101 43.3513 42.8304 43.6495C43.0506 43.9478 43.3798 44.147 43.7462 44.2038C45.2529 44.425 46.8312 44.9158 47.6108 45.366C47.4612 45.8556 47.3562 46.3576 47.2969 46.866C45.0121 47.8065 42.4817 47.9706 40.0946 47.3331C39.8376 47.2664 39.5668 47.2747 39.3144 47.3571C39.0619 47.4394 38.8383 47.5923 38.6701 47.7977C38.5192 47.9791 38.4164 48.1956 38.3712 48.4272C38.326 48.6588 38.3398 48.898 38.4113 49.1229C38.4828 49.3477 38.6097 49.551 38.7804 49.7139C38.9511 49.8768 39.16 49.9942 39.3879 50.0552C42.0579 50.7642 44.8775 50.672 47.4954 49.7899C47.9624 51.4817 48.939 52.9886 50.2925 54.1059C52.2324 55.7378 54.7615 56.5865 57.5764 56.5863C58.447 56.5842 59.3158 56.5072 60.1733 56.3561C60.3404 56.3299 63.8412 55.7549 66.0715 53.5971C67.5832 54.2448 69.1943 54.6301 70.8355 54.7366C70.8282 55.3726 70.8902 56.0075 71.0204 56.6301C71.5709 59.2113 73.3407 61.0078 76.0051 61.6888C80.9462 62.9519 84.6854 65.4925 85.3097 68.0109C85.4888 68.6694 85.8834 69.2488 86.4305 69.6567C86.9776 70.0646 87.6456 70.2773 88.3278 70.2609H91.3857C92.1206 70.2757 92.8359 70.0228 93.3982 69.5493C93.9605 69.0759 94.3316 68.4142 94.4422 67.6874C95.1324 62.2361 92.2625 57.4699 90.6094 55.2342C93.0598 53.6205 95.9253 50.7548 97.2127 45.832C97.5202 45.479 97.7993 45.1024 98.0476 44.7056C99.9694 41.6296 100.301 38.129 99.0031 35.4625C99.3303 35.043 99.6086 34.5875 99.8323 34.1048C100.219 33.2751 100.431 32.375 100.455 31.4601C100.479 30.5452 100.315 29.635 99.9729 28.7861C98.7453 25.7043 95.4568 23.8741 92.1179 24.1685Z" fill="#CAA960" fill-opacity="0.5"/>
<path d="M92.1179 24.1685C92.0507 23.1578 91.8638 22.1586 91.5612 21.1919C90.4484 17.6425 87.9064 14.7578 84.4039 13.0689C81.3943 11.6184 78.5098 11.1485 75.612 11.6348C74.6016 10.7077 73.3634 10.0651 72.0237 9.77245C70.8078 9.50195 69.5454 9.52119 68.3383 9.82862C67.1312 10.136 66.0133 10.723 65.075 11.5422C59.5304 8.9219 55.3878 9.80784 52.8425 11.0674C51.3501 11.8114 50.023 12.8487 48.9404 14.1171C45.1449 13.635 42.0776 14.3395 39.8143 16.2159C37.2031 18.381 36.4519 21.4945 36.2358 23.0493C34.5293 23.812 33.1817 25.2022 32.4727 26.9317C31.9518 28.2256 31.8496 29.6502 32.1804 31.0052C30.5834 32.9779 29.8022 35.3456 29.8022 38.2188C29.8022 39.8914 30.1666 41.5439 30.8701 43.0614C31.0335 43.3882 31.3177 43.6386 31.6625 43.7595C32.0074 43.8804 32.3857 43.8623 32.7174 43.7091C33.0492 43.5559 33.3082 43.2796 33.4398 42.9387C33.5713 42.5978 33.565 42.2191 33.4222 41.8828C32.8909 40.7342 32.6156 39.4838 32.6152 38.2183C32.6152 36.4821 32.9365 35.0725 33.6319 33.8411C34.5245 34.8885 35.6844 35.6742 36.9882 36.1146C37.3413 36.2347 37.7276 36.2098 38.0622 36.0451C38.3969 35.8804 38.6524 35.5895 38.7726 35.2365C38.8928 34.8834 38.8678 34.497 38.7031 34.1624C38.5384 33.8278 38.2476 33.5722 37.8945 33.4521C37.3016 33.2629 36.7539 32.9542 36.2851 32.5448C35.8163 32.1355 35.4365 31.6344 35.1692 31.0724C34.9438 30.589 34.82 30.0643 34.8057 29.5311C34.7913 28.9978 34.8867 28.4673 35.0858 27.9724C35.9907 25.702 38.7603 24.5472 41.2597 25.3985C41.6114 25.5137 41.9944 25.4856 42.3255 25.3202C42.6567 25.1549 42.9093 24.8656 43.0286 24.5153C43.1479 24.1649 43.1242 23.7816 42.9627 23.4485C42.8012 23.1155 42.515 22.8595 42.166 22.7362C41.228 22.417 40.2386 22.2756 39.2487 22.3192C39.5665 21.1082 40.2331 19.5128 41.6283 18.3649C43.3983 16.9087 45.9851 16.4545 49.317 17.0144C49.5867 17.0583 49.8633 17.0232 50.1136 16.9136C50.3639 16.804 50.5771 16.6243 50.7277 16.3964C50.9042 16.1292 54.9533 10.1997 63.3448 13.8433C63.1662 14.2231 63.0233 14.6186 62.9178 15.0248C62.8716 15.2036 62.8611 15.3898 62.8869 15.5727C62.9127 15.7555 62.9742 15.9316 63.068 16.0906C63.1618 16.2497 63.2861 16.3888 63.4336 16.4999C63.5812 16.611 63.7491 16.6919 63.9279 16.7381C64.1068 16.7842 64.2929 16.7947 64.4758 16.769C64.6587 16.7432 64.8347 16.6816 64.9938 16.5878C65.1529 16.494 65.292 16.3698 65.403 16.2223C65.5141 16.0747 65.5951 15.9067 65.6412 15.7279C66.244 13.3898 68.8362 11.9512 71.4195 12.5191C72.0415 12.6482 72.6315 12.9004 73.1545 13.2609C73.6776 13.6215 74.1232 14.083 74.4652 14.6184C74.7469 15.0688 74.9341 15.5718 75.0154 16.0968C75.0967 16.6217 75.0704 17.1578 74.9382 17.6723C74.8921 17.8511 74.8817 18.0373 74.9075 18.2202C74.9334 18.403 74.995 18.579 75.0888 18.7381C75.1827 18.8971 75.307 19.0361 75.4546 19.1471C75.6022 19.2582 75.7702 19.339 75.949 19.3851C76.0638 19.4149 76.182 19.43 76.3006 19.4299C76.6122 19.4297 76.915 19.326 77.1613 19.1351C77.4076 18.9442 77.5835 18.6769 77.6614 18.3752C78.0147 17.0143 77.9289 15.5766 77.4165 14.2673C79.2915 14.1925 81.1637 14.6301 83.1821 15.6032C85.977 16.9509 87.9994 19.2346 88.8774 22.0342C89.2895 23.3493 89.4245 24.7355 89.274 26.1053C89.1234 27.4752 88.6906 28.799 88.0027 29.9932C87.9119 30.154 87.8537 30.3311 87.8314 30.5145C87.809 30.6978 87.823 30.8837 87.8725 31.0617C87.9221 31.2396 88.0061 31.406 88.12 31.5515C88.2338 31.6969 88.3752 31.8185 88.536 31.9093C88.6969 32.0001 88.874 32.0583 89.0574 32.0806C89.2407 32.103 89.4266 32.089 89.6046 32.0395C89.7825 31.9899 89.9489 31.9059 90.0943 31.792C90.2398 31.6782 90.3614 31.5368 90.4522 31.376C91.2179 30.028 91.7381 28.5547 91.9885 27.0248C94.2294 26.6678 96.5635 27.828 97.3611 29.8293C97.5603 30.3242 97.6557 30.8547 97.6414 31.388C97.6271 31.9213 97.5033 32.4459 97.2779 32.9294C97.0105 33.4914 96.6307 33.9926 96.1619 34.4019C95.6931 34.8113 95.1452 35.1201 94.5523 35.3092C94.37 35.3625 94.2004 35.4521 94.0536 35.5727C93.9069 35.6933 93.7861 35.8423 93.6986 36.0109C93.611 36.1794 93.5585 36.364 93.5442 36.5534C93.5299 36.7428 93.5542 36.9331 93.6154 37.1129C93.6767 37.2926 93.7738 37.4581 93.9008 37.5994C94.0278 37.7406 94.182 37.8546 94.3543 37.9346C94.5266 38.0146 94.7133 38.0589 94.9031 38.0647C95.093 38.0706 95.282 38.0379 95.4589 37.9687C95.9053 37.816 96.3367 37.6229 96.748 37.3917C97.2636 39.1012 96.8921 41.2448 95.6616 43.2145C95.4654 43.5279 95.2418 43.8232 94.9934 44.0971C94.9474 44.1392 94.9042 44.1843 94.8643 44.2321C92.9227 46.2546 89.7441 46.9462 87.2312 46.3853C87.6442 45.5025 87.7762 44.514 87.6091 43.5537C87.4421 42.5934 86.9841 41.7076 86.2972 41.016C86.1688 40.8833 86.0155 40.7772 85.846 40.7037C85.6766 40.6302 85.4944 40.5908 85.3097 40.5877C85.1251 40.5847 84.9416 40.618 84.7698 40.6859C84.5981 40.7537 84.4413 40.8547 84.3086 40.9831C84.1759 41.1115 84.0697 41.2648 83.9963 41.4342C83.9228 41.6037 83.8834 41.7859 83.8803 41.9706C83.8773 42.1552 83.9106 42.3387 83.9784 42.5104C84.0463 42.6822 84.1473 42.8389 84.2757 42.9717C84.4739 43.1693 84.6285 43.4062 84.7298 43.6671C84.831 43.9281 84.8765 44.2073 84.8635 44.4869C84.8439 44.7743 84.7645 45.0544 84.6304 45.3094C84.4962 45.5643 84.3103 45.7884 84.0844 45.9672C83.5694 46.3748 82.924 46.5815 82.268 46.549C81.612 46.5165 80.9902 46.247 80.5179 45.7905C80.3898 45.6566 80.2365 45.5494 80.0668 45.4749C79.8971 45.4005 79.7143 45.3604 79.529 45.3568C79.3437 45.3532 79.1596 45.3863 78.9871 45.4542C78.8147 45.522 78.6573 45.6233 78.5242 45.7522C78.391 45.881 78.2846 46.0349 78.2111 46.205C78.1376 46.3752 78.0984 46.5581 78.0959 46.7434C78.0933 46.9287 78.1274 47.1127 78.1962 47.2848C78.265 47.4569 78.3671 47.6136 78.4967 47.7461C79.0069 48.2625 79.6155 48.6714 80.2864 48.9484C80.9574 49.2255 81.6771 49.3651 82.403 49.3591C83.3519 49.3613 84.2854 49.1191 85.1136 48.656C86.3386 49.1351 87.6438 49.3763 88.9592 49.3666C90.3644 49.3645 91.7581 49.114 93.076 48.6267C89.9607 54.0684 84.3005 54.861 84.0101 54.8976C83.6399 54.9425 83.3026 55.1326 83.0725 55.4262C82.8425 55.7197 82.7384 56.0926 82.7833 56.4629C82.8282 56.8331 83.0183 57.1704 83.3119 57.4005C83.6054 57.6305 83.9783 57.7346 84.3486 57.6897C85.6432 57.4886 86.9054 57.1163 88.1019 56.5825C89.4195 58.2899 92.2522 62.587 91.6517 67.3303C91.62 67.3702 91.5791 67.4018 91.5323 67.4222C91.4856 67.4426 91.4346 67.4513 91.3838 67.4474H88.3266C88.2732 67.4509 88.2196 67.4425 88.1698 67.4228C88.1199 67.403 88.0751 67.3725 88.0386 67.3333C86.9705 63.0257 81.4815 60.1849 76.7004 58.9628C75.0833 58.5496 74.1312 57.6189 73.7865 56.1171C73.6818 55.6431 73.636 55.158 73.6501 54.6728C74.9409 54.5251 76.2107 54.2306 77.4347 53.7951C77.6089 53.7337 77.7693 53.6387 77.9067 53.5153C78.0442 53.3919 78.156 53.2427 78.2357 53.0762C78.3155 52.9096 78.3617 52.729 78.3716 52.5446C78.3816 52.3602 78.3551 52.1756 78.2937 52.0014C78.2324 51.8273 78.1373 51.6669 78.0139 51.5294C77.8906 51.392 77.7414 51.2802 77.5748 51.2005C77.4082 51.1207 77.2276 51.0745 77.0432 51.0646C76.8588 51.0546 76.6742 51.0811 76.5001 51.1424C70.6772 53.1949 66.6415 50.7616 66.4794 50.6613C66.1736 50.4672 65.8047 50.3985 65.4495 50.4696C65.0944 50.5408 64.7804 50.7462 64.573 51.0431C63.4416 52.6619 60.6945 53.4215 59.7125 53.5806C56.679 54.1071 53.9762 53.5296 52.1019 51.9529C50.7971 50.8551 50.0485 49.3607 50.0485 47.853C50.0592 46.3305 50.6588 44.8713 51.7215 43.781C51.8563 43.649 51.9632 43.4912 52.0358 43.317C52.1084 43.1428 52.1452 42.9557 52.144 42.767C52.1428 42.5783 52.1036 42.3918 52.0288 42.2185C51.954 42.0453 51.8451 41.8889 51.7085 41.7586C51.572 41.6283 51.4106 41.5269 51.2341 41.4603C51.0575 41.3937 50.8693 41.3633 50.6808 41.3709C50.4922 41.3786 50.3071 41.4241 50.1365 41.5048C49.9659 41.5855 49.8133 41.6997 49.6878 41.8406C49.3859 42.1567 49.1072 42.4942 48.8539 42.8505C47.2039 41.9338 44.9832 41.541 44.1519 41.4208C43.7845 41.3706 43.4122 41.4676 43.116 41.6905C42.8197 41.9135 42.6235 42.2444 42.57 42.6113C42.5166 42.9781 42.6101 43.3513 42.8304 43.6495C43.0506 43.9478 43.3798 44.147 43.7462 44.2038C45.2529 44.425 46.8312 44.9158 47.6108 45.366C47.4612 45.8556 47.3562 46.3576 47.2969 46.866C45.0121 47.8065 42.4817 47.9706 40.0946 47.3331C39.8376 47.2664 39.5668 47.2747 39.3144 47.3571C39.0619 47.4394 38.8383 47.5923 38.6701 47.7977C38.5192 47.9791 38.4164 48.1956 38.3712 48.4272C38.326 48.6588 38.3398 48.898 38.4113 49.1229C38.4828 49.3477 38.6097 49.551 38.7804 49.7139C38.9511 49.8768 39.16 49.9942 39.3879 50.0552C42.0579 50.7642 44.8775 50.672 47.4954 49.7899C47.9624 51.4817 48.939 52.9886 50.2925 54.1059C52.2324 55.7378 54.7615 56.5865 57.5764 56.5863C58.447 56.5842 59.3158 56.5072 60.1733 56.3561C60.3404 56.3299 63.8412 55.7549 66.0715 53.5971C67.5832 54.2448 69.1943 54.6301 70.8355 54.7366C70.8282 55.3726 70.8902 56.0075 71.0204 56.6301C71.5709 59.2113 73.3407 61.0078 76.0051 61.6888C80.9462 62.9519 84.6854 65.4925 85.3097 68.0109C85.4888 68.6694 85.8834 69.2488 86.4305 69.6567C86.9776 70.0646 87.6456 70.2773 88.3278 70.2609H91.3857C92.1206 70.2757 92.8359 70.0228 93.3982 69.5493C93.9605 69.0759 94.3316 68.4142 94.4422 67.6874C95.1324 62.2361 92.2625 57.4699 90.6094 55.2342C93.0598 53.6205 95.9253 50.7548 97.2127 45.832C97.5202 45.479 97.7993 45.1024 98.0476 44.7056C99.9694 41.6296 100.301 38.129 99.0031 35.4625C99.3303 35.043 99.6086 34.5875 99.8323 34.1048C100.219 33.2751 100.431 32.375 100.455 31.4601C100.479 30.5452 100.315 29.635 99.9729 28.7861C98.7453 25.7043 95.4568 23.8741 92.1179 24.1685Z" stroke="#CAA960" stroke-opacity="0.5" stroke-width="2" mask="url(#path-1-outside-1)"/>
<path d="M58.3923 22.7625C56.2661 22.7625 54.5361 24.7671 54.5361 27.231C54.5361 29.695 56.2661 31.6999 58.3923 31.6999C60.5185 31.6999 62.2485 29.6953 62.2485 27.231C62.2485 24.7668 60.5185 22.7625 58.3923 22.7625ZM58.3923 28.8874C57.9001 28.8874 57.3486 28.1789 57.3486 27.231C57.3486 26.2832 57.8996 25.575 58.3923 25.575C58.885 25.575 59.436 26.2835 59.436 27.231C59.436 28.1786 58.885 28.8874 58.3923 28.8874Z" fill="#CAA960" fill-opacity="0.5" stroke="#CAA960" stroke-opacity="0.5"/>
<path d="M78.3266 27.231C78.3266 24.7671 76.5967 22.7625 74.4704 22.7625C72.3442 22.7625 70.6143 24.7671 70.6143 27.231C70.6143 29.695 72.3442 31.6999 74.4704 31.6999C76.5967 31.6999 78.3266 29.6953 78.3266 27.231ZM73.4268 27.231C73.4268 26.2835 73.9778 25.575 74.4704 25.575C74.9631 25.575 75.5141 26.2835 75.5141 27.231C75.5141 28.1786 74.9631 28.8874 74.4704 28.8874C73.9778 28.8874 73.4268 28.1789 73.4268 27.231Z" fill="#CAA960" fill-opacity="0.5" stroke="#CAA960" stroke-opacity="0.5"/>
<path d="M59.5198 36.7592C59.4095 36.6111 59.2711 36.4862 59.1125 36.3916C58.9538 36.297 58.7781 36.2345 58.5954 36.2078C58.4127 36.1812 58.2265 36.1907 58.0474 36.236C57.8684 36.2813 57.7 36.3613 57.5519 36.4717C57.4038 36.582 57.2789 36.7205 57.1843 36.8791C57.0897 37.0377 57.0273 37.2134 57.0006 37.3961C56.9739 37.5789 56.9835 37.7651 57.0287 37.9441C57.074 38.1232 57.1541 38.2915 57.2645 38.4396C58.3547 39.8676 59.7594 41.025 61.3695 41.8221C62.9796 42.6191 64.7518 43.0343 66.5484 43.0355C68.345 43.0366 70.1176 42.6237 71.7288 41.8287C73.3399 41.0337 74.7461 39.8781 75.8382 38.4516C76.0642 38.1549 76.1632 37.7806 76.1133 37.411C76.0633 37.0414 75.8686 36.7068 75.572 36.4807C75.2753 36.2547 74.901 36.1557 74.5314 36.2057C74.1618 36.2556 73.8271 36.4503 73.6011 36.747C72.773 37.8271 71.7076 38.7023 70.4873 39.3051C69.267 39.9078 67.9245 40.2219 66.5635 40.2231C65.2024 40.2243 63.8594 39.9125 62.638 39.3119C61.4167 38.7112 60.3498 37.8378 59.5198 36.7592Z" fill="#CAA960" fill-opacity="0.5"/>
<path d="M56.8635 38.7384L56.8635 38.7384L56.867 38.743C58.004 40.2321 59.4688 41.439 61.1477 42.2702C62.8267 43.1013 64.6746 43.5343 66.548 43.5355C68.4215 43.5367 70.27 43.1061 71.95 42.2771C73.63 41.4481 75.0964 40.2431 76.2352 38.7555L76.2359 38.7546C76.5423 38.3525 76.6764 37.8451 76.6088 37.3441C76.5411 36.843 76.2771 36.3894 75.875 36.083L75.5729 36.4794L75.875 36.083C75.4729 35.7766 74.9655 35.6425 74.4644 35.7102C73.9636 35.7778 73.5102 36.0416 73.2038 36.4435C72.4224 37.4624 71.4172 38.2881 70.2659 38.8568C69.1143 39.4256 67.8474 39.722 66.563 39.7231C65.2787 39.7242 64.0112 39.43 62.8587 38.8632C61.7072 38.2969 60.7012 37.4737 59.9183 36.457C59.7691 36.2578 59.5824 36.0896 59.3686 35.9621C59.1536 35.8339 58.9154 35.7493 58.6677 35.7131C58.42 35.6769 58.1676 35.6899 57.9249 35.7512C57.6821 35.8126 57.4539 35.9212 57.2532 36.0707C57.0524 36.2203 56.8831 36.408 56.7549 36.623C56.6267 36.838 56.542 37.0761 56.5059 37.3238C56.4697 37.5716 56.4826 37.824 56.544 38.0667C56.6054 38.3094 56.7139 38.5376 56.8635 38.7384Z" stroke="#CAA960" stroke-opacity="0.5"/>
<path d="M110.016 48.7422C110.751 41.3074 110.56 30.3963 105.476 20.6383C102.724 15.2775 98.5697 10.7638 93.4547 7.57872C87.7775 4.03708 80.7497 1.95723 72.5656 1.39684C57.4034 0.359968 45.0289 2.92028 35.7854 9.01075C29.2636 13.3116 24.2376 19.5308 21.4011 26.8099C19.5083 31.6304 18.9037 36.8607 19.6468 41.9859C19.8309 43.3792 20.192 44.7433 20.7212 46.0453C21.1609 47.1215 21.3442 48.2853 21.2567 49.4446C21.1691 50.604 20.813 51.727 20.2165 52.725L10.1687 69.4509C9.91241 69.8774 9.75046 70.3538 9.69367 70.8481C9.63689 71.3423 9.68659 71.843 9.83944 72.3165C9.99229 72.79 10.2447 73.2252 10.5798 73.593C10.9149 73.9608 11.3249 74.2526 11.7821 74.4487L17.4589 76.8799C17.5373 76.9654 17.5863 77.0738 17.5987 77.1892C17.6111 77.3046 17.5862 77.4209 17.5278 77.5211L15.2968 81.2997C15.0979 81.6362 14.9733 82.0112 14.9311 82.3997C14.8889 82.7882 14.9303 83.1813 15.0523 83.5525C15.1744 83.9238 15.3743 84.2647 15.6388 84.5524C15.9033 84.8401 16.2262 85.068 16.5858 85.2208L18.7142 86.1241L17.2116 88.6891C17.0072 89.0378 16.8824 89.4274 16.8461 89.83C16.8098 90.2325 16.8629 90.6381 17.0016 91.0178C17.1403 91.3975 17.3611 91.7418 17.6483 92.0262C17.9356 92.3106 18.2821 92.528 18.6631 92.6629L20.7106 93.3867C20.1247 96.6935 19.1138 105.209 23.3944 108.839C25.7717 110.855 29.2304 110.96 33.6765 109.151C38.7858 107.073 43.857 105.023 48.3828 103.2C49.9979 105.446 54.2574 111.642 55.8204 116.591C56.0205 117.239 56.4228 117.805 56.9682 118.208C57.5137 118.61 58.1737 118.828 58.8516 118.828H101.989C102.526 118.828 103.054 118.691 103.524 118.432C103.994 118.172 104.39 117.797 104.675 117.342C104.961 116.887 105.126 116.367 105.156 115.831C105.186 115.295 105.079 114.76 104.846 114.276C103.249 110.969 100.377 104.27 99.091 96.5693C97.5528 87.3583 98.6963 79.4908 102.489 73.1885C106.374 66.7347 109.117 57.8245 110.016 48.7422ZM96.3169 97.0326C97.6604 105.079 100.651 112.056 102.314 115.499C102.34 115.554 102.351 115.615 102.348 115.676C102.344 115.736 102.325 115.795 102.293 115.846C102.26 115.898 102.215 115.94 102.162 115.97C102.109 115.999 102.049 116.015 101.989 116.015H58.8516C58.7722 116.013 58.6956 115.985 58.633 115.936C58.5704 115.888 58.5251 115.82 58.5036 115.743C56.9239 110.742 52.9897 104.829 51.0706 102.118C59.1153 98.8839 64.8687 96.5915 64.9622 96.5543C65.3088 96.4163 65.5863 96.1463 65.7337 95.8038C65.8812 95.4612 65.8865 95.0741 65.7486 94.7275C65.6106 94.381 65.3406 94.1035 64.9981 93.956C64.6555 93.8086 64.2684 93.8032 63.9219 93.9412L32.6173 106.547C29.2205 107.93 26.7301 107.979 25.2155 106.696C22.0137 103.984 23.0358 95.7288 23.6991 92.7773C23.7751 92.4413 23.7251 92.0892 23.5586 91.7877C23.3922 91.4861 23.1208 91.2561 22.7961 91.1414L19.6808 90.0398L21.3373 87.2109C21.515 86.9077 21.6259 86.5701 21.6628 86.2207C21.6997 85.8712 21.6617 85.5179 21.5513 85.1843C21.4409 84.8507 21.2606 84.5445 21.0225 84.286C20.7845 84.0275 20.494 83.8228 20.1706 83.6854L17.7579 82.6617L19.9496 78.9501C20.3792 78.2307 20.5222 77.3759 20.35 76.5558C20.1778 75.7357 19.7032 75.0106 19.0205 74.5246C18.9373 74.4647 18.8477 74.4141 18.7533 74.3737L12.8893 71.8624C12.8012 71.8244 12.7224 71.768 12.6579 71.697C12.5935 71.6259 12.545 71.542 12.5156 71.4507C12.4863 71.3594 12.4769 71.2629 12.4879 71.1676C12.4989 71.0724 12.5302 70.9806 12.5797 70.8984L22.6276 54.1727C23.4486 52.7987 23.9388 51.2526 24.0594 49.6565C24.18 48.0605 23.9276 46.4582 23.3222 44.9765C22.8799 43.8875 22.58 42.746 22.4297 41.5802C21.7569 36.9393 22.3044 32.2033 24.0183 27.8383C26.6436 21.0996 31.2956 15.3419 37.3325 11.3597C46.0501 5.61606 57.8403 3.20856 72.3734 4.20301C87.0758 5.20919 97.3733 11.1761 102.98 21.9375C107.745 31.0816 107.914 41.4103 107.216 48.4652C106.371 57.0199 103.703 65.7187 100.08 71.7386C95.9314 78.6307 94.6653 87.1406 96.3169 97.0326Z" fill="#CAA960" fill-opacity="0.5"/>
<path d="M65.1472 97.0188C65.6169 96.8318 65.9931 96.4658 66.193 96.0014C66.3929 95.5371 66.4001 95.0123 66.2131 94.5426C66.0261 94.0729 65.6601 93.6967 65.1958 93.4968C64.7314 93.2969 64.2066 93.2897 63.7369 93.4767L63.7351 93.4774L32.4306 106.083L32.4288 106.084C29.0576 107.456 26.8213 107.401 25.5387 106.314L25.5387 106.314C24.8423 105.724 24.3446 104.805 24.0152 103.654C23.687 102.508 23.5381 101.176 23.5078 99.8153C23.4471 97.0929 23.8621 94.3329 24.1868 92.8876C24.2898 92.4321 24.222 91.9548 23.9963 91.546C23.7707 91.1373 23.4029 90.8256 22.9628 90.67C22.9627 90.67 22.9627 90.6699 22.9627 90.6699L20.4181 89.7702L21.7687 87.4637C21.9823 87.0991 22.1157 86.6933 22.16 86.2732C22.2044 85.853 22.1587 85.4283 22.026 85.0272C21.8932 84.6261 21.6765 84.258 21.3903 83.9473L21.0225 84.286L21.3903 83.9472C21.1041 83.6365 20.7549 83.3904 20.3661 83.2252L20.3659 83.2252L18.4787 82.4244L20.3789 79.2065C20.3792 79.206 20.3794 79.2055 20.3797 79.205C20.8731 78.378 21.0372 77.3956 20.8393 76.4531C20.6414 75.5105 20.0961 74.6769 19.3116 74.1181C19.199 74.0371 19.0778 73.9687 18.9502 73.9141C18.9501 73.9141 18.95 73.914 18.9499 73.914L13.0875 71.4034C13.0649 71.3936 13.0447 71.3792 13.0282 71.3609C13.0116 71.3427 12.9992 71.3212 12.9917 71.2978C12.9842 71.2744 12.9817 71.2496 12.9846 71.2252C12.9874 71.2008 12.9954 71.1772 13.0081 71.1562L13.0083 71.1559L23.0562 54.4302L23.0568 54.4292C23.9176 52.9886 24.4316 51.3676 24.558 49.6942C24.6844 48.0208 24.4198 46.3409 23.7851 44.7874L23.3222 44.9765M65.1472 97.0188L64.9622 96.5543L65.1473 97.0187C65.1473 97.0188 65.1472 97.0188 65.1472 97.0188ZM65.1472 97.0188C65.052 97.0567 59.5756 99.2387 51.8422 102.347C53.8509 105.23 57.4311 110.751 58.9556 115.515H101.766C100.076 111.984 97.1524 105.072 95.8238 97.115C94.1575 87.1354 95.4275 78.4982 99.6517 71.4808C103.229 65.537 105.879 56.913 106.719 48.416C107.412 41.402 107.236 31.1875 102.537 22.1685C97.0285 11.5966 86.9112 5.69909 72.3393 4.70185C57.8731 3.71197 46.2038 6.11356 37.6076 11.7772C31.6572 15.7024 27.0718 21.3777 24.4842 28.0198L24.4837 28.0211C22.8016 32.3052 22.2642 36.9535 22.9246 41.5085L22.9257 41.5163L22.9256 41.5163C23.0704 42.6394 23.3594 43.7392 23.7855 44.7884L23.3222 44.9765M23.3222 44.9765C23.9276 46.4582 24.18 48.0605 24.0594 49.6565C23.9388 51.2526 23.4486 52.7987 22.6276 54.1727L37.3325 11.3597C31.2956 15.3419 26.6436 21.0996 24.0183 27.8383C22.3044 32.2033 21.7569 36.9393 22.4297 41.5802C22.58 42.746 22.8799 43.8875 23.3222 44.9765ZM72.5998 0.898011L72.5997 0.898008C57.3685 -0.143588 44.8739 2.42363 35.5103 8.59323L35.5101 8.59334C28.9021 12.9511 23.8095 19.2524 20.9354 26.6277C19.0115 31.5279 18.3967 36.8447 19.1515 42.0546C19.3413 43.4889 19.7132 44.8932 20.258 46.2336L20.2583 46.2344C20.6687 47.2388 20.8398 48.325 20.7581 49.407C20.6764 50.4888 20.3441 51.5368 19.7876 52.468C19.7875 52.4682 19.7874 52.4683 19.7874 52.4685L9.74006 69.1934C9.44706 69.681 9.26187 70.2258 9.19694 70.791C9.13201 71.3562 9.18884 71.9287 9.36362 72.4701C9.5384 73.0115 9.82707 73.5092 10.2102 73.9298C10.5934 74.3503 11.0621 74.6839 11.585 74.9082L11.5852 74.9083L17.0963 77.2685C17.0962 77.2686 17.0962 77.2687 17.0961 77.2688C17.096 77.269 17.0959 77.2692 17.0958 77.2693L14.8663 81.0453C14.6313 81.4431 14.4839 81.8865 14.434 82.3458C14.3842 82.8051 14.433 83.2698 14.5773 83.7087C14.7216 84.1476 14.958 84.5506 15.2707 84.8908C15.5834 85.2309 15.9651 85.5003 16.3903 85.681L16.3905 85.6811L17.9953 86.3622L16.7802 88.4363C16.7802 88.4363 16.7802 88.4363 16.7802 88.4364C16.5386 88.8486 16.3911 89.3092 16.3482 89.785C16.3052 90.261 16.368 90.7405 16.5319 91.1894C16.6959 91.6382 16.957 92.0453 17.2965 92.3815C17.6361 92.7177 18.0458 92.9748 18.4962 93.1343L18.4965 93.1343L20.1467 93.7177C19.8621 95.4428 19.5323 98.2121 19.7288 101.027C19.9405 104.061 20.7722 107.271 23.0711 109.22L23.3944 108.839L23.0711 109.22C25.6583 111.414 29.3482 111.452 33.8649 109.614C38.8368 107.592 43.7726 105.596 48.2048 103.811C49.9613 106.281 53.8749 112.093 55.3433 116.74C55.5751 117.489 56.0404 118.145 56.6713 118.61C57.3027 119.076 58.0667 119.328 58.8514 119.328H58.8516H101.989H101.989C102.61 119.328 103.222 119.17 103.766 118.869C104.31 118.568 104.768 118.134 105.099 117.608C105.429 117.081 105.621 116.48 105.655 115.859C105.69 115.238 105.566 114.619 105.296 114.059L105.296 114.059C103.709 110.772 100.859 104.122 99.5842 96.4869C98.0602 87.3609 99.2012 79.6215 102.918 73.4463C106.848 66.917 109.609 57.9322 110.513 48.7914C111.252 41.3146 111.068 30.2909 105.92 20.409C103.127 14.9681 98.9105 10.387 93.719 7.15428C87.9583 3.56064 80.8473 1.46274 72.5998 0.898011Z" stroke="#CAA960" stroke-opacity="0.5"/>
</svg>
