<svg width="20" height="20" viewBox="0 0 20 20" fill="none" xmlns="http://www.w3.org/2000/svg">
<g clip-path="url(#clip0)">
<path d="M17.2323 13.9201C16.0241 12.8867 14.7979 12.2608 13.6046 13.2926L12.892 13.9162C12.3706 14.3689 11.4012 16.484 7.65334 12.1726C3.90622 7.86665 6.13607 7.19621 6.65822 6.74743L7.37471 6.12304C8.56183 5.08889 8.11383 3.78704 7.25763 2.44694L6.74095 1.63524C5.88085 0.29826 4.94427 -0.579789 3.75402 0.452796L3.1109 1.01475C2.58485 1.39797 1.11441 2.64363 0.757731 5.01006C0.328463 7.84948 1.68261 11.101 4.78505 14.6686C7.88358 18.2378 10.9173 20.0306 13.7911 19.9993C16.1794 19.9736 17.6217 18.692 18.0729 18.2261L18.7183 17.6633C19.9054 16.6315 19.1679 15.581 17.9589 14.5453L17.2323 13.9201Z" fill="url(#paint0_linear)"/>
</g>
<defs>
<linearGradient id="paint0_linear" x1="10.0001" y1="0" x2="10.0001" y2="19.9997" gradientUnits="userSpaceOnUse">
<stop stop-color="#CAA960"/>
<stop offset="1" stop-color="#F3D48E"/>
</linearGradient>
<clipPath id="clip0">
<rect width="20" height="20" fill="white"/>
</clipPath>
</defs>
</svg>
