<svg width="120" height="120" viewBox="0 0 120 120" fill="none" xmlns="http://www.w3.org/2000/svg">
<g clip-path="url(#clip0)">
<path d="M62.9678 57.0353C62.0514 56.1189 60.5678 56.1189 59.6514 57.0353C58.7373 57.9494 58.7373 59.433 59.6514 60.3494C60.5678 61.2635 62.0514 61.2635 62.9678 60.3494C63.8818 59.433 63.8818 57.9494 62.9678 57.0353Z" fill="#CAA960" fill-opacity="0.5"/>
<path d="M92.797 27.2038C88.2173 22.6244 80.8036 22.6242 76.2236 27.2038C71.6559 31.7716 71.6557 39.2059 76.2243 43.7774C80.7937 48.344 88.2281 48.3458 92.797 43.7769C97.3762 39.1977 97.3771 31.7837 92.797 27.2038ZM89.4824 40.4622C86.7419 43.2029 82.2808 43.2029 79.5389 40.4626C76.7979 37.72 76.7976 33.2589 79.5384 30.5184C82.286 27.7708 86.7344 27.7703 89.4824 30.5184C92.23 33.2657 92.2305 37.7144 89.4824 40.4622Z" fill="#CAA960" fill-opacity="0.5"/>
<path d="M119.313 0.686384C118.852 0.226307 118.224 -0.0230678 117.571 0.00154152C117.041 0.0205259 104.424 0.527712 89.4251 5.82903C77.4064 10.0726 67.3885 16.1483 59.6497 23.8874C57.9156 25.6215 56.2281 27.4604 54.6135 29.3708C46.9616 24.8666 40.8299 26.2789 36.9536 28.3534C28.0283 33.1299 22.5039 46.0993 22.5039 55.3758C22.5046 56.3236 23.0758 57.1784 23.9514 57.541C24.2413 57.6612 24.546 57.7196 24.8479 57.7196C25.458 57.7196 26.0573 57.4812 26.5056 57.0331C31.2126 52.3261 37.0183 52.6205 38.9148 52.8699L39.7356 53.6907C38.1203 57.5344 36.819 61.3566 35.8647 65.074C35.5201 66.4193 35.6364 67.8429 36.1485 69.1451C33.8919 70.185 31.7148 71.712 29.8192 73.6076C23.7862 79.6408 22.5611 94.3441 22.5119 94.9671C22.458 95.6507 22.7059 96.3239 23.1909 96.8088C23.6322 97.2499 24.2291 97.4953 24.8479 97.4953C24.9093 97.4953 24.9709 97.4929 25.0326 97.488C25.6555 97.439 40.3593 96.2139 46.3923 90.1809C48.2872 88.286 49.8139 86.1091 50.8538 83.853C52.2324 84.3951 53.6513 84.4619 54.9273 84.135C58.6431 83.1808 62.4648 81.8801 66.309 80.2645L67.1298 81.0853C67.3789 82.9821 67.6733 88.7878 62.9666 93.4943C62.2965 94.1646 62.0959 95.1726 62.4587 96.0482C62.8212 96.9241 63.6758 97.495 64.6238 97.495C73.9004 97.495 86.8695 91.9706 91.646 83.0454C93.7205 79.1695 95.1328 73.0378 90.6286 65.3857C92.5381 63.7718 94.3772 62.0843 96.112 60.3495C103.851 52.6104 109.927 42.5926 114.17 30.5748C119.472 15.5753 119.979 2.95747 119.998 2.42779C120.021 1.7774 119.773 1.1467 119.313 0.686384ZM27.7441 50.3346C29.2 43.2886 33.4288 35.5569 39.1663 32.4861C43.0004 30.4344 47.1913 30.6355 51.6472 33.0746C47.851 38.0673 44.5508 43.4461 41.8 49.1262C41.765 49.1047 41.3432 48.5743 40.5594 48.3975C40.2372 48.3247 34.0358 46.9908 27.7441 50.3346ZM43.0778 86.8661C39.8551 90.0888 32.2954 91.7885 27.5172 92.4825C28.2114 87.704 29.9113 80.1445 33.1337 76.9221C34.9384 75.1174 37.0309 73.7491 39.1342 72.9785L47.0214 80.8657C46.2507 82.969 44.8827 85.0615 43.0778 86.8661ZM53.7629 79.5942C53.0846 79.7679 52.299 79.5129 51.7149 78.9298C48.6828 75.8977 47.4967 74.7115 47.1245 74.3395C46.442 73.657 44.7683 71.9834 41.0715 68.2863C40.487 67.7006 40.232 66.9152 40.4052 66.2381C41.1559 63.3145 42.1377 60.315 43.3316 57.2867L62.7132 76.6683C59.6844 77.8624 56.6853 78.844 53.7629 79.5942ZM87.5138 80.8336C84.443 86.5708 76.7115 90.7999 69.6657 92.2556C71.9122 88.0282 72.4074 82.6467 71.5866 79.3835C71.3961 78.6255 70.9015 78.2444 70.8739 78.1997C76.5535 75.4488 81.9321 72.1486 86.9253 68.3524C89.3644 72.8088 89.5653 77.0001 87.5138 80.8336ZM92.798 57.035C90.686 59.1467 88.4119 61.1869 86.0386 63.0987C80.3335 67.6924 74.0541 71.5835 67.3548 74.681L45.3189 52.6456C48.4164 45.9458 52.3074 39.6664 56.9007 33.9619C58.8141 31.587 60.8541 29.3127 62.9652 27.2019C69.9085 20.2583 78.8696 14.7322 89.6067 10.7544L109.245 30.3931C105.268 41.1301 99.742 50.0911 92.798 57.035ZM110.932 25.4499L94.5499 9.06809C103.475 6.29591 111.24 5.25786 115.115 4.88474C114.742 8.76106 113.704 16.5257 110.932 25.4499Z" fill="#CAA960" fill-opacity="0.5"/>
<path d="M56.337 96.8081C55.4213 95.8929 53.9372 95.8934 53.0222 96.8086L46.3941 103.439C45.4791 104.355 45.4793 105.839 46.3946 106.754C47.3103 107.669 48.7943 107.669 49.7093 106.753L56.3375 100.123C57.2524 99.2072 57.2522 97.7231 56.337 96.8081Z" fill="#CAA960" fill-opacity="0.5"/>
<path d="M23.1923 63.6633C22.2773 62.7479 20.7935 62.7479 19.8778 63.6629L13.2473 70.291C12.3319 71.206 12.3316 72.69 13.2466 73.6055C14.1614 74.5205 15.6452 74.5215 16.5611 73.606L23.1916 66.9779C24.1071 66.0629 24.1073 64.5788 23.1923 63.6633Z" fill="#CAA960" fill-opacity="0.5"/>
<path d="M39.7644 100.125C38.8496 99.2096 37.3653 99.2096 36.4499 100.125L20.5733 115.999C19.6579 116.914 19.6579 118.398 20.5731 119.313C21.4879 120.229 22.9722 120.229 23.8876 119.314L39.7642 103.439C40.6796 102.524 40.6796 101.04 39.7644 100.125Z" fill="#CAA960" fill-opacity="0.5"/>
<path d="M21.0144 100.125C20.0994 99.2096 18.6151 99.2096 17.6999 100.125L1.82335 115.999C0.907881 116.914 0.907881 118.398 1.82311 119.313C2.73788 120.229 4.22217 120.229 5.13764 119.314L21.0142 103.439C21.9296 102.524 21.9296 101.04 21.0144 100.125Z" fill="#CAA960" fill-opacity="0.5"/>
<path d="M19.8756 80.2353C18.9606 79.3203 17.4763 79.3203 16.5611 80.2355L0.686884 96.1121C-0.228349 97.0275 -0.228349 98.5113 0.687118 99.4268C1.60235 100.342 3.08641 100.342 4.00164 99.4266L19.8758 83.55C20.7911 82.6346 20.7911 81.1508 19.8756 80.2353Z" fill="#CAA960" fill-opacity="0.5"/>
<path d="M72.91 47.0904C71.9945 46.1751 70.5109 46.1751 69.5952 47.0904L66.2811 50.4044C65.3659 51.3196 65.3659 52.8037 66.2811 53.7192C67.1966 54.6344 68.6804 54.6344 69.5959 53.7192L72.91 50.4051C73.8252 49.4899 73.8252 48.0058 72.91 47.0904Z" fill="#CAA960" fill-opacity="0.5"/>
</g>
<defs>
<clipPath id="clip0">
<rect width="120" height="120" fill="white"/>
</clipPath>
</defs>
</svg>
