<svg width="24" height="24" viewBox="0 0 24 24" fill="none" xmlns="http://www.w3.org/2000/svg">
<path d="M12.2362 24.0014C12.1567 24.0014 12.0773 24.0014 11.9973 24.001C10.116 24.0056 8.37781 23.9578 6.68738 23.8549C5.13757 23.7606 3.7229 23.225 2.59607 22.3062C1.50879 21.4196 0.766296 20.2208 0.389282 18.7435C0.0611573 17.4574 0.0437622 16.1948 0.0270996 14.9737C0.0150146 14.0976 0.00256348 13.0593 0 12.0036C0.00256348 10.9434 0.0150146 9.90518 0.0270996 9.02902C0.0437622 7.80807 0.0611573 6.54556 0.389282 5.25924C0.766296 3.78195 1.50879 2.58315 2.59607 1.69656C3.7229 0.777734 5.13757 0.242151 6.68756 0.147851C8.37799 0.0451292 10.1166 -0.00284443 12.0018 0.00173321C13.8836 -0.00229511 15.6213 0.0451292 17.3117 0.147851C18.8615 0.242151 20.2762 0.777734 21.403 1.69656C22.4905 2.58315 23.2328 3.78195 23.6098 5.25924C23.9379 6.54537 23.9553 7.80807 23.972 9.02902C23.9841 9.90518 23.9967 10.9434 23.9991 11.9992V12.0036C23.9967 13.0593 23.9841 14.0976 23.972 14.9737C23.9553 16.1947 23.9381 17.4572 23.6098 18.7435C23.2328 20.2208 22.4905 21.4196 21.403 22.3062C20.2762 23.225 18.8615 23.7606 17.3117 23.8549C15.6929 23.9534 14.0299 24.0014 12.2362 24.0014ZM11.9973 22.126C13.8479 22.1304 15.5471 22.0837 17.1978 21.9834C18.3697 21.9121 19.3857 21.5318 20.2181 20.8531C20.9875 20.2255 21.5175 19.3598 21.793 18.2799C22.0662 17.2093 22.082 16.0597 22.0972 14.9481C22.1091 14.0778 22.1215 13.0469 22.1241 12.0014C22.1215 10.9557 22.1091 9.92495 22.0972 9.05465C22.082 7.94302 22.0662 6.79348 21.793 5.72268C21.5175 4.64272 20.9875 3.777 20.2181 3.1495C19.3857 2.47091 18.3697 2.0906 17.1978 2.01937C15.5471 1.91885 13.8479 1.87252 12.0016 1.87655C10.1514 1.87216 8.45197 1.91885 6.80127 2.01937C5.62939 2.0906 4.61334 2.47091 3.78094 3.1495C3.01154 3.777 2.48163 4.64272 2.20605 5.72268C1.93286 6.79348 1.91711 7.94283 1.90192 9.05465C1.89001 9.92568 1.87756 10.9571 1.875 12.0036C1.87756 13.0454 1.89001 14.077 1.90192 14.9481C1.91711 16.0597 1.93286 17.2093 2.20605 18.2799C2.48163 19.3598 3.01154 20.2255 3.78094 20.8531C4.61334 21.5316 5.62939 21.9119 6.80127 21.9832C8.45197 22.0837 10.1517 22.1306 11.9973 22.126ZM11.9526 17.8607C8.72186 17.8607 6.0932 15.2323 6.0932 12.0014C6.0932 8.77047 8.72186 6.14199 11.9526 6.14199C15.1835 6.14199 17.812 8.77047 17.812 12.0014C17.812 15.2323 15.1835 17.8607 11.9526 17.8607ZM11.9526 8.01699C9.75568 8.01699 7.9682 9.80447 7.9682 12.0014C7.9682 14.1983 9.75568 15.9857 11.9526 15.9857C14.1497 15.9857 15.937 14.1983 15.937 12.0014C15.937 9.80447 14.1497 8.01699 11.9526 8.01699ZM18.4682 4.26699C17.6917 4.26699 17.062 4.89651 17.062 5.67324C17.062 6.44998 17.6917 7.07949 18.4682 7.07949C19.2449 7.07949 19.8745 6.44998 19.8745 5.67324C19.8745 4.89651 19.2449 4.26699 18.4682 4.26699Z" fill="url(#paint0_linear)"/>
<defs>
<linearGradient id="paint0_linear" x1="11.9995" y1="0.00143433" x2="11.9995" y2="24.0014" gradientUnits="userSpaceOnUse">
<stop stop-color="#CAA960"/>
<stop offset="1" stop-color="#F3D48E"/>
</linearGradient>
</defs>
</svg>
