<svg width="50" height="50" viewBox="0 0 50 50" fill="none" xmlns="http://www.w3.org/2000/svg">
<path d="M25.0001 14.6097C21.0739 14.6097 17.8799 17.8037 17.8799 21.7299C17.8799 25.6561 21.074 28.8501 25.0001 28.8501C28.9262 28.8501 32.1203 25.656 32.1203 21.7299C32.1203 17.8038 28.9263 14.6097 25.0001 14.6097ZM25.0001 25.6856C22.8186 25.6856 21.0444 23.9108 21.0444 21.73C21.0444 19.5485 22.8186 17.7743 25.0001 17.7743C27.1815 17.7743 28.9558 19.5485 28.9558 21.73C28.9558 23.9114 27.1815 25.6856 25.0001 25.6856Z" fill="url(#paint0_linear)"/>
<path d="M25.0002 25.6329C19.1547 25.6329 14.3989 30.3887 14.3989 36.2342V38.6076C14.3989 39.4815 15.1072 40.1899 15.9813 40.1899C16.8552 40.1899 17.5636 39.4816 17.5636 38.6076V36.2342C17.5636 32.1334 20.8995 28.7975 25.0003 28.7975C29.1011 28.7975 32.437 32.134 32.437 36.2342V38.6076C32.437 39.4815 33.1453 40.1899 34.0193 40.1899C34.8933 40.1899 35.6017 39.4816 35.6017 38.6076V36.2342C35.6015 30.3887 30.8457 25.6329 25.0002 25.6329Z" fill="url(#paint1_linear)"/>
<path d="M39.3985 9.81016C35.4724 9.81016 32.2783 13.0043 32.2783 16.9304C32.2783 20.8565 35.4725 24.0506 39.3985 24.0506C43.3252 24.0506 46.5187 20.8565 46.5187 16.9304C46.5187 13.0043 43.3247 9.81016 39.3985 9.81016ZM39.3985 20.886C37.2171 20.886 35.4429 19.1118 35.4429 16.9304C35.4429 14.7489 37.2171 12.9747 39.3985 12.9747C41.58 12.9747 43.3542 14.7489 43.3542 16.9304C43.3542 19.1118 41.58 20.886 39.3985 20.886Z" fill="url(#paint2_linear)"/>
<path d="M39.3985 20.8333C34.5499 20.8333 30.3189 24.1197 29.1111 28.8259C28.8938 29.6719 29.4038 30.5342 30.2498 30.7516C31.0963 30.971 31.9581 30.4594 32.1755 29.6129C33.0246 26.3064 35.9951 23.9979 39.3986 23.9979C43.4994 23.9979 46.8353 27.3345 46.8353 31.4347V33.8081C46.8353 34.682 47.5436 35.3904 48.4176 35.3904C49.2916 35.3904 50 34.6821 49.9999 33.8081V31.4346C49.9998 25.5892 45.244 20.8333 39.3985 20.8333Z" fill="url(#paint3_linear)"/>
<path d="M10.6012 9.81016C6.675 9.81016 3.48096 13.0043 3.48096 16.9304C3.48096 20.8565 6.6751 24.0506 10.6012 24.0506C14.5273 24.0506 17.7214 20.8565 17.7214 16.9304C17.7214 13.0043 14.5273 9.81016 10.6012 9.81016ZM10.6012 20.886C8.41973 20.886 6.64551 19.1118 6.64551 16.9304C6.64551 14.7489 8.41973 12.9747 10.6012 12.9747C12.7826 12.9747 14.5568 14.7489 14.5568 16.9304C14.5568 19.1118 12.7826 20.886 10.6012 20.886Z" fill="url(#paint4_linear)"/>
<path d="M20.8365 28.7732C19.6361 24.0981 15.4272 20.8334 10.6013 20.8334C4.75576 20.8333 0 25.5892 0 31.4346V33.808C0 34.6819 0.708301 35.3903 1.58232 35.3903C2.45625 35.3903 3.16465 34.682 3.16465 33.808V31.4346C3.16465 27.3344 6.50059 23.9979 10.6014 23.9979C13.9821 23.9979 16.9305 26.2848 17.7712 29.5601C17.9885 30.4061 18.8477 30.9144 19.6974 30.6993C20.5438 30.482 21.0538 29.6192 20.8365 28.7732Z" fill="url(#paint5_linear)"/>
<defs>
<linearGradient id="paint0_linear" x1="25.0001" y1="14.6097" x2="25.0001" y2="28.8501" gradientUnits="userSpaceOnUse">
<stop stop-color="#CAA960"/>
<stop offset="1" stop-color="#F3D48E"/>
</linearGradient>
<linearGradient id="paint1_linear" x1="25.0003" y1="25.6329" x2="25.0003" y2="40.1899" gradientUnits="userSpaceOnUse">
<stop stop-color="#CAA960"/>
<stop offset="1" stop-color="#F3D48E"/>
</linearGradient>
<linearGradient id="paint2_linear" x1="39.3985" y1="9.81016" x2="39.3985" y2="24.0506" gradientUnits="userSpaceOnUse">
<stop stop-color="#CAA960"/>
<stop offset="1" stop-color="#F3D48E"/>
</linearGradient>
<linearGradient id="paint3_linear" x1="39.5304" y1="20.8333" x2="39.5304" y2="35.3904" gradientUnits="userSpaceOnUse">
<stop stop-color="#CAA960"/>
<stop offset="1" stop-color="#F3D48E"/>
</linearGradient>
<linearGradient id="paint4_linear" x1="10.6012" y1="9.81016" x2="10.6012" y2="24.0506" gradientUnits="userSpaceOnUse">
<stop stop-color="#CAA960"/>
<stop offset="1" stop-color="#F3D48E"/>
</linearGradient>
<linearGradient id="paint5_linear" x1="10.4433" y1="20.8334" x2="10.4433" y2="35.3903" gradientUnits="userSpaceOnUse">
<stop stop-color="#CAA960"/>
<stop offset="1" stop-color="#F3D48E"/>
</linearGradient>
</defs>
</svg>
