<svg width="45" height="45" viewBox="0 0 45 45" fill="none" xmlns="http://www.w3.org/2000/svg">
<path d="M41.0404 35.8891C41.86 34.9009 42.3529 33.6347 42.3529 32.2559C42.3529 29.1058 39.7801 26.543 36.6176 26.543C36.4691 26.543 36.3222 26.5504 36.1765 26.5615V18.457H36.6176C37.3486 18.457 37.9412 17.8668 37.9412 17.1387C37.9412 16.4106 37.3486 15.8203 36.6176 15.8203H35.2941V11.8652C35.2941 11.5156 35.1547 11.1803 34.9064 10.9331L33.1417 9.17525C32.6249 8.66039 31.7869 8.66039 31.27 9.17525C30.7531 9.69012 30.7531 10.5248 31.27 11.0397L32.6471 12.4113V15.8203H30.8824V15.3809C30.8824 12.6876 29.2517 10.3678 26.9228 9.34611C27.7423 8.35796 28.2353 7.09172 28.2353 5.71289C28.2353 2.5628 25.6624 0 22.5 0C19.3376 0 16.7647 2.5628 16.7647 5.71289C16.7647 7.09172 17.2577 8.35796 18.0772 9.34611C15.7483 10.3678 14.1176 12.6876 14.1176 15.3809V15.8203H8.38235C7.65141 15.8203 7.05882 16.4106 7.05882 17.1387C7.05882 17.8668 7.65141 18.457 8.38235 18.457H8.82353V26.5615C8.67776 26.5504 8.53094 26.543 8.38235 26.543C5.21991 26.543 2.64706 29.1058 2.64706 32.2559C2.64706 33.6347 3.14003 34.9009 3.95956 35.8891C1.63068 36.9108 0 39.2306 0 41.9238V43.6816C0 44.4097 0.592588 45 1.32353 45H43.6765C44.4074 45 45 44.4097 45 43.6816V41.9238C45 39.2306 43.3693 36.9108 41.0404 35.8891ZM39.7059 32.2559C39.7059 33.9521 38.3205 35.332 36.6176 35.332C34.9148 35.332 33.5294 33.9521 33.5294 32.2559C33.5294 30.5597 34.9148 29.1797 36.6176 29.1797C38.3205 29.1797 39.7059 30.5597 39.7059 32.2559ZM22.5 2.63672C24.2029 2.63672 25.5882 4.01669 25.5882 5.71289C25.5882 7.40909 24.2029 8.78906 22.5 8.78906C20.7971 8.78906 19.4118 7.40909 19.4118 5.71289C19.4118 4.01669 20.7971 2.63672 22.5 2.63672ZM16.7647 15.3809C16.7647 13.2 18.5459 11.4258 20.7353 11.4258H24.2647C26.4541 11.4258 28.2353 13.2 28.2353 15.3809V15.8203H16.7647V15.3809ZM11.4706 18.457H33.5294V27.4457C31.9391 28.4623 30.8824 30.2379 30.8824 32.2559C30.8824 33.6347 31.3753 34.9009 32.1949 35.8891C31.1464 36.3491 30.239 37.0712 29.5588 37.9733C28.8786 37.0712 27.9713 36.3491 26.9228 35.8891C27.7423 34.9009 28.2353 33.6347 28.2353 32.2559C28.2353 29.1058 25.6624 26.543 22.5 26.543C19.3376 26.543 16.7647 29.1058 16.7647 32.2559C16.7647 33.6347 17.2577 34.9009 18.0772 35.8891C17.0287 36.3491 16.1214 37.0712 15.4412 37.9733C14.761 37.0712 13.8536 36.3491 12.8051 35.8891C13.6247 34.9009 14.1176 33.6347 14.1176 32.2559C14.1176 30.2379 13.0609 28.4623 11.4706 27.4457V18.457ZM19.4118 32.2559C19.4118 30.5597 20.7971 29.1797 22.5 29.1797C24.2029 29.1797 25.5882 30.5597 25.5882 32.2559C25.5882 33.9521 24.2029 35.332 22.5 35.332C20.7971 35.332 19.4118 33.9521 19.4118 32.2559ZM8.38235 29.1797C10.0852 29.1797 11.4706 30.5597 11.4706 32.2559C11.4706 33.9521 10.0852 35.332 8.38235 35.332C6.6795 35.332 5.29412 33.9521 5.29412 32.2559C5.29412 30.5597 6.6795 29.1797 8.38235 29.1797ZM2.64706 41.9238C2.64706 39.743 4.42826 37.9688 6.61765 37.9688H10.1471C12.3364 37.9688 14.1176 39.743 14.1176 41.9238V42.3633H2.64706V41.9238ZM16.7647 41.9238C16.7647 39.743 18.5459 37.9688 20.7353 37.9688H24.2647C26.4541 37.9688 28.2353 39.743 28.2353 41.9238V42.3633H16.7647V41.9238ZM42.3529 42.3633H30.8824V41.9238C30.8824 39.743 32.6636 37.9688 34.8529 37.9688H38.3824C40.5717 37.9688 42.3529 39.743 42.3529 41.9238V42.3633Z" fill="url(#paint0_linear)"/>
<defs>
<linearGradient id="paint0_linear" x1="22.5" y1="0" x2="22.5" y2="45" gradientUnits="userSpaceOnUse">
<stop stop-color="#CAA960"/>
<stop offset="1" stop-color="#F3D48E"/>
</linearGradient>
</defs>
</svg>
