<svg width="50" height="50" viewBox="0 0 50 50" fill="none" xmlns="http://www.w3.org/2000/svg">
<path d="M49.1404 31.386C49.02 28.4781 48.5384 25.2543 47.8159 22.22C47.0935 19.3122 46.1905 16.594 45.1069 14.508C40.8928 6.7327 36.3175 7.93375 30.8392 9.45088C29.0934 9.89337 27.2271 10.3991 25.3007 10.5887H24.6987C22.7722 10.3991 20.906 9.89337 19.1602 9.45088C13.6818 7.99697 9.10655 6.7327 4.89247 14.5712C3.80885 16.6572 2.84563 19.3754 2.18341 22.2832C1.461 25.3175 0.979389 28.5414 0.858987 31.4492C0.738584 34.6731 1.03959 37.012 1.7018 38.6555C2.36402 40.1726 3.32724 41.1208 4.59146 41.5001C5.73529 41.8162 7.05971 41.6898 8.44434 41.0576C10.7922 40.0462 13.5012 37.897 16.1501 35.3052C18.0163 33.4088 21.508 32.4606 24.9997 32.4606C28.4913 32.4606 31.983 33.4088 33.8493 35.3052C36.4981 37.897 39.2072 40.0462 41.555 41.0576C42.9396 41.6265 44.2641 41.8162 45.4079 41.5001C46.6119 41.1208 47.6353 40.2358 48.2975 38.5923C48.9598 37.012 49.2608 34.6731 49.1404 31.386ZM46.2507 37.7073C45.8895 38.5923 45.4079 39.098 44.8059 39.2876C44.1437 39.4773 43.3008 39.3509 42.3376 38.9716C40.2306 38.0866 37.7623 36.127 35.3543 33.7249C33.0666 31.3227 29.0332 30.1217 24.9997 30.1217C20.9662 30.1217 16.9327 31.3227 14.5849 33.5984C12.1166 36.0005 9.64837 38.0234 7.60152 38.8452C6.6383 39.2244 5.79549 39.4141 5.13327 39.1612C4.53126 38.9716 4.04965 38.4659 3.68844 37.5809C3.20683 36.3798 2.96603 34.4202 3.08643 31.5124C3.20683 28.7942 3.62824 25.6967 4.35066 22.7889C5.01287 20.0707 5.85569 17.5422 6.87911 15.6458C10.1902 9.38766 14.0431 10.3991 18.6183 11.6633C20.4846 12.1691 22.411 12.6748 24.5181 12.8644C24.5783 12.8644 24.5783 12.8644 24.6385 12.8644H25.3007C25.3609 12.8644 25.3609 12.8644 25.4211 12.8644C27.5883 12.6748 29.5148 12.1691 31.381 11.6633C35.9563 10.4623 39.8092 9.38766 43.1202 15.6458C44.1437 17.5422 44.9865 20.0075 45.6487 22.7889C46.3109 25.6967 46.7925 28.731 46.9129 31.5124C47.0333 34.4202 46.7925 36.3798 46.2507 37.7073Z" fill="url(#paint0_linear)" stroke="url(#paint1_linear)"/>
<path d="M20.3291 20.1927C19.7063 19.6322 18.959 19.1963 18.0871 19.134C18.0248 18.3244 17.6512 17.5148 17.0907 16.9543L17.0284 16.892C16.3434 16.207 15.4715 15.8333 14.475 15.8333C13.4786 15.8333 12.5445 16.2693 11.9217 16.892C11.3612 17.4525 10.9252 18.2621 10.863 19.134C9.99109 19.1963 9.24376 19.57 8.62099 20.1305L8.55871 20.1927C7.87366 20.8778 7.5 21.7497 7.5 22.7461C7.5 23.7425 7.93594 24.6767 8.55871 25.2995C9.18148 25.9222 9.92881 26.2959 10.863 26.3582C10.9252 27.2301 11.2989 28.0397 11.9217 28.6002C12.6067 29.2852 13.4786 29.6589 14.475 29.6589C15.4715 29.6589 16.4056 29.2229 17.0284 28.6002C17.5889 27.9774 18.0248 27.2301 18.0871 26.3582C18.959 26.2959 19.7686 25.9222 20.3291 25.2995C21.0141 24.6144 21.3878 23.7425 21.3878 22.7461C21.3878 21.7497 20.9519 20.8155 20.3291 20.1927ZM18.7722 23.6803C18.5231 23.9294 18.2117 24.0539 17.838 24.0539H16.9661C16.3434 24.0539 15.7829 24.5521 15.7829 25.2372V26.0468C15.7829 26.4205 15.6583 26.7318 15.4092 26.9809C15.1601 27.2301 14.8487 27.3546 14.475 27.3546C14.1014 27.3546 13.79 27.2301 13.5409 26.9809C13.2918 26.7318 13.1672 26.4205 13.1672 26.0468V25.1749C13.1672 24.5521 12.669 23.9916 11.984 23.9916H11.1121C10.7384 23.9916 10.427 23.8671 10.1779 23.618C9.99109 23.4311 9.80426 23.1198 9.80426 22.7461C9.80426 22.3724 9.92881 22.061 10.1779 21.8119C10.1779 21.8119 10.1779 21.8119 10.2402 21.7497C10.4893 21.5628 10.8007 21.4383 11.1121 21.4383H11.984C12.6067 21.4383 13.1672 20.9401 13.1672 20.255V19.3831C13.1672 19.0095 13.2918 18.6981 13.5409 18.449C13.79 18.1999 14.1014 18.0753 14.475 18.0753C14.8487 18.0753 15.1601 18.1999 15.4092 18.449C15.4092 18.449 15.4092 18.449 15.4715 18.5113C15.6583 18.7604 15.7829 19.0717 15.7829 19.3831V20.255C15.7829 20.8778 16.2811 21.4383 16.9661 21.4383H17.838C18.2117 21.4383 18.5231 21.5628 18.7722 21.8119C19.0213 22.061 19.1458 22.3724 19.1458 22.7461C19.1458 23.1198 19.0213 23.4311 18.7722 23.6803Z" fill="url(#paint2_linear)"/>
<path d="M35.8364 20.292C37.0403 20.292 38.0161 19.3161 38.0161 18.1123C38.0161 16.9085 37.0403 15.9326 35.8364 15.9326C34.6326 15.9326 33.6567 16.9085 33.6567 18.1123C33.6567 19.3161 34.6326 20.292 35.8364 20.292Z" fill="url(#paint3_linear)"/>
<path d="M35.8364 29.1353C37.0403 29.1353 38.0161 28.1595 38.0161 26.9556C38.0161 25.7518 37.0403 24.7759 35.8364 24.7759C34.6326 24.7759 33.6567 25.7518 33.6567 26.9556C33.6567 28.1595 34.6326 29.1353 35.8364 29.1353Z" fill="url(#paint4_linear)"/>
<path d="M31.4146 24.7137C32.6184 24.7137 33.5943 23.7378 33.5943 22.534C33.5943 21.3302 32.6184 20.3543 31.4146 20.3543C30.2107 20.3543 29.2349 21.3302 29.2349 22.534C29.2349 23.7378 30.2107 24.7137 31.4146 24.7137Z" fill="url(#paint5_linear)"/>
<path d="M40.2578 24.7137C41.4616 24.7137 42.4375 23.7378 42.4375 22.534C42.4375 21.3302 41.4616 20.3543 40.2578 20.3543C39.054 20.3543 38.0781 21.3302 38.0781 22.534C38.0781 23.7378 39.054 24.7137 40.2578 24.7137Z" fill="url(#paint6_linear)"/>
<defs>
<linearGradient id="paint0_linear" x1="24.9997" y1="8.33333" x2="24.9997" y2="41.6667" gradientUnits="userSpaceOnUse">
<stop stop-color="#CAA960"/>
<stop offset="1" stop-color="#F3D48E"/>
</linearGradient>
<linearGradient id="paint1_linear" x1="24.9997" y1="8.33334" x2="24.9997" y2="41.6667" gradientUnits="userSpaceOnUse">
<stop stop-color="#CAA960"/>
<stop offset="1" stop-color="#F3D48E"/>
</linearGradient>
<linearGradient id="paint2_linear" x1="14.4439" y1="15.8333" x2="14.4439" y2="29.6589" gradientUnits="userSpaceOnUse">
<stop stop-color="#CAA960"/>
<stop offset="1" stop-color="#F3D48E"/>
</linearGradient>
<linearGradient id="paint3_linear" x1="35.8364" y1="15.9326" x2="35.8364" y2="20.292" gradientUnits="userSpaceOnUse">
<stop stop-color="#CAA960"/>
<stop offset="1" stop-color="#F3D48E"/>
</linearGradient>
<linearGradient id="paint4_linear" x1="35.8364" y1="24.7759" x2="35.8364" y2="29.1353" gradientUnits="userSpaceOnUse">
<stop stop-color="#CAA960"/>
<stop offset="1" stop-color="#F3D48E"/>
</linearGradient>
<linearGradient id="paint5_linear" x1="31.4146" y1="20.3543" x2="31.4146" y2="24.7137" gradientUnits="userSpaceOnUse">
<stop stop-color="#CAA960"/>
<stop offset="1" stop-color="#F3D48E"/>
</linearGradient>
<linearGradient id="paint6_linear" x1="40.2578" y1="20.3543" x2="40.2578" y2="24.7137" gradientUnits="userSpaceOnUse">
<stop stop-color="#CAA960"/>
<stop offset="1" stop-color="#F3D48E"/>
</linearGradient>
</defs>
</svg>
