<svg width="24" height="24" viewBox="0 0 24 24" fill="none" xmlns="http://www.w3.org/2000/svg">
<g clip-path="url(#clip0)">
<path d="M9.93918 7.85602C9.44218 7.55902 8.80518 7.91802 8.80518 8.50002V15.5C8.80518 16.085 9.44318 16.439 9.93918 16.145L15.8082 12.65C16.2962 12.359 16.2952 11.653 15.8092 11.361L9.93918 7.85602ZM10.3052 14.181V9.82102L13.9602 12.004L10.3052 14.181Z" fill="url(#paint0_linear)"/>
<path d="M19.904 3.271C15.251 2.58 8.751 2.58 4.096 3.271C2.234 3.547 0.767 5.009 0.447 6.907C-0.149 10.43 -0.149 13.571 0.447 17.093C0.767 18.992 2.234 20.453 4.096 20.729C6.428 21.075 9.22 21.248 12.011 21.248C14.797 21.248 17.582 21.076 19.905 20.73C21.765 20.454 23.231 18.993 23.553 17.094C24.149 13.571 24.149 10.429 23.553 6.906C23.233 5.009 21.766 3.547 19.904 3.271ZM22.074 16.844C21.861 18.1 20.901 19.066 19.684 19.246C15.166 19.917 8.846 19.917 4.316 19.245C3.098 19.064 2.137 18.099 1.925 16.843C1.351 13.449 1.351 10.552 1.925 7.156C2.138 5.9 3.098 4.936 4.317 4.754C6.579 4.419 9.29 4.251 11.999 4.251C14.71 4.251 17.421 4.419 19.683 4.754C20.901 4.935 21.862 5.9 22.074 7.156C22.648 10.552 22.648 13.449 22.074 16.844Z" fill="url(#paint1_linear)"/>
</g>
<defs>
<linearGradient id="paint0_linear" x1="12.4896" y1="7.74948" x2="12.4896" y2="16.2506" gradientUnits="userSpaceOnUse">
<stop stop-color="#CAA960"/>
<stop offset="1" stop-color="#F3D48E"/>
</linearGradient>
<linearGradient id="paint1_linear" x1="12" y1="2.75275" x2="12" y2="21.248" gradientUnits="userSpaceOnUse">
<stop stop-color="#CAA960"/>
<stop offset="1" stop-color="#F3D48E"/>
</linearGradient>
<clipPath id="clip0">
<rect width="24" height="24" fill="white"/>
</clipPath>
</defs>
</svg>
